<svg width="107" height="108" viewBox="0 0 107 108" fill="none" xmlns="http://www.w3.org/2000/svg">
<path d="M86 41C97.0457 41 106 32.0457 106 21C106 9.9543 97.0457 1 86 1C74.9543 1 66 9.9543 66 21C66 32.0457 74.9543 41 86 41Z" stroke="white" stroke-width="2" stroke-dasharray="4 4"/>
<circle cx="1.01746" cy="17.2843" r="0.517458" fill="#210949" stroke="white"/>
<circle cx="1.01746" cy="25.4241" r="0.517458" fill="#210949" stroke="white"/>
<circle cx="1.01746" cy="33.5636" r="0.517458" fill="#210949" stroke="white"/>
<circle cx="1.01746" cy="41.7034" r="0.517458" fill="#210949" stroke="white"/>
<circle cx="1.01746" cy="49.843" r="0.517458" fill="#210949" stroke="white"/>
<circle cx="1.01746" cy="57.9827" r="0.517458" fill="#210949" stroke="white"/>
<circle cx="1.01746" cy="66.1223" r="0.517458" fill="#210949" stroke="white"/>
<circle cx="1.01746" cy="74.262" r="0.517458" fill="#210949" stroke="white"/>
<circle cx="1.01746" cy="82.4017" r="0.517458" fill="#210949" stroke="white"/>
<circle cx="1.01746" cy="90.5413" r="0.517458" fill="#210949" stroke="white"/>
<circle cx="1.01746" cy="98.681" r="0.517458" fill="#210949" stroke="white"/>
<circle cx="1.01746" cy="106.714" r="0.517458" fill="#210949" stroke="white"/>
<circle cx="9.15711" cy="17.2843" r="0.517458" fill="#210949" stroke="white"/>
<circle cx="9.15711" cy="25.4241" r="0.517458" fill="#210949" stroke="white"/>
<circle cx="9.15711" cy="33.5636" r="0.517458" fill="#210949" stroke="white"/>
<circle cx="9.15711" cy="41.7034" r="0.517458" fill="#210949" stroke="white"/>
<circle cx="9.15711" cy="49.843" r="0.517458" fill="#210949" stroke="white"/>
<circle cx="9.15711" cy="57.9827" r="0.517458" fill="#210949" stroke="white"/>
<circle cx="9.15711" cy="66.1223" r="0.517458" fill="#210949" stroke="white"/>
<circle cx="9.15711" cy="74.262" r="0.517458" fill="#210949" stroke="white"/>
<circle cx="9.15711" cy="82.4017" r="0.517458" fill="#210949" stroke="white"/>
<circle cx="9.15711" cy="90.5413" r="0.517458" fill="#210949" stroke="white"/>
<circle cx="9.15711" cy="98.681" r="0.517458" fill="#210949" stroke="white"/>
<circle cx="9.15711" cy="106.714" r="0.517458" fill="#210949" stroke="white"/>
<circle cx="17.2968" cy="17.2843" r="0.517458" fill="#210949" stroke="white"/>
<circle cx="17.2968" cy="25.4241" r="0.517458" fill="#210949" stroke="white"/>
<circle cx="17.2968" cy="33.5636" r="0.517458" fill="#210949" stroke="white"/>
<circle cx="17.2968" cy="41.7034" r="0.517458" fill="#210949" stroke="white"/>
<circle cx="17.2968" cy="49.843" r="0.517458" fill="#210949" stroke="white"/>
<circle cx="17.2968" cy="57.9827" r="0.517458" fill="#210949" stroke="white"/>
<circle cx="17.2968" cy="66.1223" r="0.517458" fill="#210949" stroke="white"/>
<circle cx="17.2968" cy="74.262" r="0.517458" fill="#210949" stroke="white"/>
<circle cx="17.2968" cy="82.4017" r="0.517458" fill="#210949" stroke="white"/>
<circle cx="17.2968" cy="90.5413" r="0.517458" fill="#210949" stroke="white"/>
<circle cx="17.2968" cy="98.681" r="0.517458" fill="#210949" stroke="white"/>
<circle cx="17.2968" cy="106.714" r="0.517458" fill="#210949" stroke="white"/>
<circle cx="25.4364" cy="17.2843" r="0.517458" fill="#210949" stroke="white"/>
<circle cx="25.4364" cy="25.4241" r="0.517458" fill="#210949" stroke="white"/>
<circle cx="25.4364" cy="33.5636" r="0.517458" fill="#210949" stroke="white"/>
<circle cx="25.4364" cy="41.7034" r="0.517458" fill="#210949" stroke="white"/>
<circle cx="25.4364" cy="49.843" r="0.517458" fill="#210949" stroke="white"/>
<circle cx="25.4364" cy="57.9827" r="0.517458" fill="#210949" stroke="white"/>
<circle cx="25.4364" cy="66.1223" r="0.517458" fill="#210949" stroke="white"/>
<circle cx="25.4364" cy="74.262" r="0.517458" fill="#210949" stroke="white"/>
<circle cx="25.4364" cy="82.4017" r="0.517458" fill="#210949" stroke="white"/>
<circle cx="25.4364" cy="90.5413" r="0.517458" fill="#210949" stroke="white"/>
<circle cx="25.4364" cy="98.681" r="0.517458" fill="#210949" stroke="white"/>
<circle cx="25.4364" cy="106.714" r="0.517458" fill="#210949" stroke="white"/>
<circle cx="33.5761" cy="17.2843" r="0.517458" fill="#210949" stroke="white"/>
<circle cx="33.5761" cy="25.4241" r="0.517458" fill="#210949" stroke="white"/>
<circle cx="33.5761" cy="33.5636" r="0.517458" fill="#210949" stroke="white"/>
<circle cx="33.5761" cy="41.7034" r="0.517458" fill="#210949" stroke="white"/>
<circle cx="33.5761" cy="49.843" r="0.517458" fill="#210949" stroke="white"/>
<circle cx="33.5761" cy="57.9827" r="0.517458" fill="#210949" stroke="white"/>
<circle cx="33.5761" cy="66.1223" r="0.517458" fill="#210949" stroke="white"/>
<circle cx="33.5761" cy="74.262" r="0.517458" fill="#210949" stroke="white"/>
<circle cx="33.5761" cy="82.4017" r="0.517458" fill="#210949" stroke="white"/>
<circle cx="33.5761" cy="90.5413" r="0.517458" fill="#210949" stroke="white"/>
<circle cx="33.5761" cy="98.681" r="0.517458" fill="#210949" stroke="white"/>
<circle cx="33.5761" cy="106.714" r="0.517458" fill="#210949" stroke="white"/>
<circle cx="41.7159" cy="17.2843" r="0.517458" fill="#210949" stroke="white"/>
<circle cx="41.7159" cy="25.4241" r="0.517458" fill="#210949" stroke="white"/>
<circle cx="41.7159" cy="33.5636" r="0.517458" fill="#210949" stroke="white"/>
<circle cx="41.7159" cy="41.7034" r="0.517458" fill="#210949" stroke="white"/>
<circle cx="41.7159" cy="49.843" r="0.517458" fill="#210949" stroke="white"/>
<circle cx="41.7159" cy="57.9827" r="0.517458" fill="#210949" stroke="white"/>
<circle cx="41.7159" cy="66.1223" r="0.517458" fill="#210949" stroke="white"/>
<circle cx="41.7159" cy="74.262" r="0.517458" fill="#210949" stroke="white"/>
<circle cx="41.7159" cy="82.4017" r="0.517458" fill="#210949" stroke="white"/>
<circle cx="41.7159" cy="90.5413" r="0.517458" fill="#210949" stroke="white"/>
<circle cx="41.7159" cy="98.681" r="0.517458" fill="#210949" stroke="white"/>
<circle cx="41.7159" cy="106.714" r="0.517458" fill="#210949" stroke="white"/>
<circle cx="49.8556" cy="17.2843" r="0.517458" fill="#210949" stroke="white"/>
<circle cx="49.8556" cy="25.4241" r="0.517458" fill="#210949" stroke="white"/>
<circle cx="49.8556" cy="33.5636" r="0.517458" fill="#210949" stroke="white"/>
<circle cx="49.8556" cy="41.7034" r="0.517458" fill="#210949" stroke="white"/>
<circle cx="49.8556" cy="49.843" r="0.517458" fill="#210949" stroke="white"/>
<circle cx="49.8556" cy="57.9827" r="0.517458" fill="#210949" stroke="white"/>
<circle cx="49.8556" cy="66.1223" r="0.517458" fill="#210949" stroke="white"/>
<circle cx="49.8556" cy="74.262" r="0.517458" fill="#210949" stroke="white"/>
<circle cx="49.8556" cy="82.4017" r="0.517458" fill="#210949" stroke="white"/>
<circle cx="49.8556" cy="90.5413" r="0.517458" fill="#210949" stroke="white"/>
<circle cx="49.8556" cy="98.681" r="0.517458" fill="#210949" stroke="white"/>
<circle cx="49.8556" cy="106.714" r="0.517458" fill="#210949" stroke="white"/>
<circle cx="57.9952" cy="17.2843" r="0.517458" fill="#210949" stroke="white"/>
<circle cx="57.9952" cy="25.4241" r="0.517458" fill="#210949" stroke="white"/>
<circle cx="57.9952" cy="33.5636" r="0.517458" fill="#210949" stroke="white"/>
<circle cx="57.9952" cy="41.7034" r="0.517458" fill="#210949" stroke="white"/>
<circle cx="57.9952" cy="49.843" r="0.517458" fill="#210949" stroke="white"/>
<circle cx="57.9952" cy="57.9827" r="0.517458" fill="#210949" stroke="white"/>
<circle cx="57.9952" cy="66.1223" r="0.517458" fill="#210949" stroke="white"/>
<circle cx="57.9952" cy="74.262" r="0.517458" fill="#210949" stroke="white"/>
<circle cx="57.9952" cy="82.4017" r="0.517458" fill="#210949" stroke="white"/>
<circle cx="57.9952" cy="90.5413" r="0.517458" fill="#210949" stroke="white"/>
<circle cx="57.9952" cy="98.681" r="0.517458" fill="#210949" stroke="white"/>
<circle cx="57.9952" cy="106.714" r="0.517458" fill="#210949" stroke="white"/>
<circle cx="66.1349" cy="17.2843" r="0.517458" fill="#210949" stroke="white"/>
<circle cx="66.1349" cy="25.4241" r="0.517458" fill="#210949" stroke="white"/>
<circle cx="66.1349" cy="33.5636" r="0.517458" fill="#210949" stroke="white"/>
<circle cx="66.1349" cy="41.7034" r="0.517458" fill="#210949" stroke="white"/>
<circle cx="66.1349" cy="49.843" r="0.517458" fill="#210949" stroke="white"/>
<circle cx="66.1349" cy="57.9827" r="0.517458" fill="#210949" stroke="white"/>
<circle cx="66.1349" cy="66.1223" r="0.517458" fill="#210949" stroke="white"/>
<circle cx="66.1349" cy="74.262" r="0.517458" fill="#210949" stroke="white"/>
<circle cx="66.1349" cy="82.4017" r="0.517458" fill="#210949" stroke="white"/>
<circle cx="66.1349" cy="90.5413" r="0.517458" fill="#210949" stroke="white"/>
<circle cx="66.1349" cy="98.681" r="0.517458" fill="#210949" stroke="white"/>
<circle cx="66.1349" cy="106.714" r="0.517458" fill="#210949" stroke="white"/>
<circle cx="74.2745" cy="17.2843" r="0.517458" fill="#210949" stroke="white"/>
<circle cx="74.2745" cy="25.4241" r="0.517458" fill="#210949" stroke="white"/>
<circle cx="74.2745" cy="33.5636" r="0.517458" fill="#210949" stroke="white"/>
<circle cx="74.2745" cy="41.7034" r="0.517458" fill="#210949" stroke="white"/>
<circle cx="74.2745" cy="49.843" r="0.517458" fill="#210949" stroke="white"/>
<circle cx="74.2745" cy="57.9827" r="0.517458" fill="#210949" stroke="white"/>
<circle cx="74.2745" cy="66.1223" r="0.517458" fill="#210949" stroke="white"/>
<circle cx="74.2745" cy="74.262" r="0.517458" fill="#210949" stroke="white"/>
<circle cx="74.2745" cy="82.4017" r="0.517458" fill="#210949" stroke="white"/>
<circle cx="74.2745" cy="90.5413" r="0.517458" fill="#210949" stroke="white"/>
<circle cx="74.2745" cy="98.681" r="0.517458" fill="#210949" stroke="white"/>
<circle cx="74.2745" cy="106.714" r="0.517458" fill="#210949" stroke="white"/>
<circle cx="82.4142" cy="17.2843" r="0.517458" fill="#210949" stroke="white"/>
<circle cx="82.4142" cy="25.4241" r="0.517458" fill="#210949" stroke="white"/>
<circle cx="82.4142" cy="33.5636" r="0.517458" fill="#210949" stroke="white"/>
<circle cx="82.4142" cy="41.7034" r="0.517458" fill="#210949" stroke="white"/>
<circle cx="82.4142" cy="49.843" r="0.517458" fill="#210949" stroke="white"/>
<circle cx="82.4142" cy="57.9827" r="0.517458" fill="#210949" stroke="white"/>
<circle cx="82.4142" cy="66.1223" r="0.517458" fill="#210949" stroke="white"/>
<circle cx="82.4142" cy="74.262" r="0.517458" fill="#210949" stroke="white"/>
<circle cx="82.4142" cy="82.4017" r="0.517458" fill="#210949" stroke="white"/>
<circle cx="82.4142" cy="90.5413" r="0.517458" fill="#210949" stroke="white"/>
<circle cx="82.4142" cy="98.681" r="0.517458" fill="#210949" stroke="white"/>
<circle cx="82.4142" cy="106.714" r="0.517458" fill="#210949" stroke="white"/>
<circle cx="90.5538" cy="17.2843" r="0.517458" fill="#210949" stroke="white"/>
<circle cx="90.5538" cy="25.4241" r="0.517458" fill="#210949" stroke="white"/>
<circle cx="90.5538" cy="33.5636" r="0.517458" fill="#210949" stroke="white"/>
<circle cx="90.5538" cy="41.7034" r="0.517458" fill="#210949" stroke="white"/>
<circle cx="90.5538" cy="49.843" r="0.517458" fill="#210949" stroke="white"/>
<circle cx="90.5538" cy="57.9827" r="0.517458" fill="#210949" stroke="white"/>
<circle cx="90.5538" cy="66.1223" r="0.517458" fill="#210949" stroke="white"/>
<circle cx="90.5538" cy="74.262" r="0.517458" fill="#210949" stroke="white"/>
<circle cx="90.5538" cy="82.4017" r="0.517458" fill="#210949" stroke="white"/>
<circle cx="90.5538" cy="90.5413" r="0.517458" fill="#210949" stroke="white"/>
<circle cx="90.5538" cy="98.681" r="0.517458" fill="#210949" stroke="white"/>
<circle cx="90.5538" cy="106.714" r="0.517458" fill="#210949" stroke="white"/>
</svg>
