<svg width="86" height="86" viewBox="0 0 86 86" fill="none" xmlns="http://www.w3.org/2000/svg">
<path d="M43.6161 74.0693C60.4916 74.0693 74.1719 60.2704 74.1719 43.2485C74.1719 26.2267 60.4916 12.4277 43.6161 12.4277C26.7405 12.4277 13.0602 26.2267 13.0602 43.2485C13.0602 60.2704 26.7405 74.0693 43.6161 74.0693Z" stroke="white" stroke-width="2" stroke-dasharray="4 4"/>
<path d="M8.24847 30.8964C8.05355 30.9195 7.88199 30.9975 7.7338 31.1305C7.58287 31.257 7.46353 31.4313 7.37578 31.6527C7.22403 32.036 7.22834 32.3937 7.38866 32.726C7.5444 33.0563 7.83052 33.3054 8.24701 33.4732C8.69096 33.6521 9.08631 33.6722 9.4331 33.5336C9.77712 33.3884 10.0333 33.1036 10.2014 32.6788C10.3166 32.388 10.3403 32.1138 10.2724 31.8563C10.2064 31.5941 10.0543 31.3617 9.8163 31.1586L9.22125 32.6614L8.35625 32.3129L9.3763 29.7369L10.4679 30.1766C10.7261 30.3824 10.939 30.6421 11.1066 30.9558C11.2761 31.265 11.3746 31.6125 11.4023 31.9982C11.4299 32.3842 11.3633 32.7802 11.2024 33.1866C11.0123 33.6665 10.7393 34.0545 10.3835 34.3501C10.0248 34.6391 9.61813 34.8151 9.16334 34.8782C8.71035 34.9366 8.24585 34.8698 7.76987 34.6781C7.29389 34.4863 6.91167 34.2119 6.62321 33.8547C6.332 33.4913 6.15746 33.0809 6.09958 32.6241C6.03713 32.1653 6.10096 31.696 6.29107 31.2158C6.52142 30.6342 6.85477 30.2009 7.29118 29.9166C7.72939 29.6273 8.22126 29.5176 8.76673 29.5875L8.24847 30.8964Z" fill="white"/>
<path d="M10.2656 23.4616L13.8931 25.4426L13.2913 26.5638L12.7972 26.2941C12.8966 26.4952 12.9433 26.7214 12.9374 26.9727C12.9295 27.217 12.8622 27.4574 12.7355 27.6935C12.5853 27.9731 12.3921 28.1871 12.1558 28.335C11.9151 28.4804 11.6461 28.5485 11.3487 28.5386C11.0513 28.5289 10.7444 28.4377 10.428 28.2649L8.30872 27.1074L8.90704 25.9929L10.8768 27.0684C11.1195 27.2009 11.3421 27.2406 11.5445 27.1872C11.7469 27.1337 11.9056 27 12.0205 26.7858C12.1379 26.567 12.1634 26.3578 12.0971 26.1577C12.0307 25.9576 11.8762 25.791 11.6335 25.6586L9.66375 24.5829L10.2656 23.4616Z" fill="white"/>
<path d="M11.5866 20.3379C11.466 20.5257 11.3131 20.6448 11.1278 20.6955C10.9411 20.7393 10.7671 20.7085 10.6058 20.603C10.4404 20.4949 10.3414 20.3472 10.309 20.1602C10.275 19.9662 10.3184 19.7753 10.439 19.5876C10.557 19.4041 10.7093 19.2904 10.896 19.2466C11.0813 19.1959 11.2566 19.2247 11.422 19.3328C11.5833 19.4383 11.6809 19.588 11.7149 19.782C11.7473 19.9691 11.7046 20.1544 11.5866 20.3379ZM12.2882 20.0413L15.7497 22.3044L15.0621 23.3744L11.6006 21.1113L12.2882 20.0413Z" fill="white"/>
<path d="M13.3398 15.8699L17.6031 19.3275L16.811 20.3212L12.5477 16.8636L13.3398 15.8699Z" fill="white"/>
<path d="M16.0636 12.9231L19.8951 16.8616L18.9928 17.7546L15.1613 13.8161L16.0636 12.9231Z" fill="white"/>
<path d="M20.3694 14.0535C20.1422 13.6926 20.0093 13.3331 19.9707 12.9751C19.9362 12.6144 19.9893 12.286 20.1298 11.9898C20.2703 11.6937 20.4841 11.4537 20.7711 11.2698C21.0166 11.1126 21.2626 11.0257 21.509 11.0092C21.7596 10.99 21.9864 11.0302 22.1893 11.1299L21.8762 10.6327L22.9433 9.94913L25.1546 13.4615L24.0876 14.1451L23.7745 13.6478C23.7735 13.8781 23.7112 14.1035 23.5873 14.3242C23.4677 14.5421 23.2851 14.7298 23.0397 14.887C22.7568 15.0682 22.4526 15.16 22.1272 15.1623C21.799 15.1605 21.4805 15.0672 21.1715 14.8823C20.864 14.6907 20.5966 14.4144 20.3694 14.0535ZM22.9819 12.3889C22.8128 12.1203 22.6045 11.9564 22.357 11.897C22.1136 11.835 21.8858 11.872 21.6737 12.0079C21.4615 12.1438 21.3294 12.3374 21.2774 12.5886C21.2269 12.8329 21.2862 13.0894 21.4552 13.3579C21.6243 13.6265 21.8319 13.7939 22.0779 13.8601C22.3254 13.9194 22.5553 13.8811 22.7674 13.7452C22.9796 13.6093 23.1096 13.4171 23.1575 13.1685C23.2095 12.9173 23.151 12.6575 22.9819 12.3889Z" fill="white"/>
<path d="M29.3161 6.73254L30.9023 10.5734L29.7355 11.0637L29.5194 10.5406C29.4711 10.7601 29.3667 10.9656 29.2055 11.1572C29.047 11.3423 28.845 11.4864 28.5993 11.5897C28.308 11.712 28.0244 11.7558 27.7484 11.721C27.4707 11.6816 27.2191 11.5638 26.9939 11.3676C26.7687 11.1714 26.5871 10.9058 26.4486 10.5709L25.5218 8.32692L26.6819 7.83943L27.5434 9.92506C27.6494 10.182 27.798 10.3539 27.9887 10.4407C28.1792 10.5275 28.3862 10.5241 28.6089 10.4304C28.8364 10.3349 28.9867 10.1882 29.0599 9.99053C29.1331 9.79283 29.1165 9.5655 29.0106 9.30852L28.1491 7.22289L29.3161 6.73254Z" fill="white"/>
<path d="M37.6739 4.64018C38.1774 4.54381 38.6059 4.62121 38.959 4.87238C39.3173 5.12262 39.5477 5.52123 39.6505 6.06825L40.0997 8.45652L38.8651 8.69279L38.4474 6.47302C38.3979 6.20931 38.2895 6.02006 38.1227 5.90527C37.9593 5.7847 37.7567 5.74759 37.5148 5.79392C37.2725 5.84025 37.0951 5.95011 36.9822 6.1235C36.8733 6.29108 36.8438 6.50675 36.8933 6.77047L37.3107 8.99024L36.0762 9.22654L35.6585 7.00677C35.609 6.74303 35.5005 6.55378 35.3335 6.43902C35.1703 6.31845 34.9678 6.28134 34.7258 6.32767C34.4836 6.374 34.3061 6.48386 34.1933 6.65725C34.0844 6.82483 34.0548 7.04047 34.1043 7.30421L34.5218 9.52398L33.2798 9.76165L32.511 5.67377L33.7529 5.4361L33.8493 5.94892C33.9432 5.75388 34.0824 5.58807 34.2675 5.45146C34.4515 5.30998 34.6718 5.21469 34.9286 5.16557C35.2337 5.10721 35.517 5.12126 35.7792 5.2077C36.0461 5.29323 36.2703 5.44515 36.4517 5.66338C36.55 5.41187 36.7068 5.19209 36.9221 5.00414C37.1377 4.81618 37.3883 4.69486 37.6739 4.64018Z" fill="white"/>
<path d="M46.1377 6.33341C46.1362 6.45269 46.1271 6.57687 46.1108 6.70589L43.2501 6.66794C43.2664 6.92666 43.345 7.12657 43.4862 7.26765C43.6323 7.40384 43.8112 7.47331 44.0231 7.47612C44.3386 7.48032 44.5596 7.34901 44.6863 7.08223L46.0317 7.1001C45.959 7.37257 45.8301 7.61695 45.6451 7.83324C45.4647 8.04958 45.2382 8.2181 44.9657 8.33878C44.6929 8.45945 44.3891 8.51756 44.0539 8.51311C43.6498 8.50774 43.2913 8.41598 42.9781 8.23781C42.6651 8.05965 42.4219 7.80786 42.2487 7.4824C42.0755 7.15695 41.9917 6.778 41.9973 6.34556C42.003 5.9131 42.0942 5.53649 42.2709 5.21568C42.4525 4.89495 42.7021 4.64967 43.0197 4.47989C43.3374 4.3101 43.7008 4.22793 44.1099 4.23334C44.5091 4.23866 44.8627 4.32787 45.171 4.50099C45.4792 4.67411 45.7175 4.91839 45.8858 5.23383C46.0593 5.54934 46.1431 5.91586 46.1377 6.33341ZM44.8484 5.98071C44.8514 5.76201 44.7796 5.58705 44.6335 5.45584C44.4874 5.32465 44.3036 5.25756 44.0818 5.25463C43.8699 5.25182 43.689 5.31158 43.5397 5.43386C43.395 5.55623 43.3041 5.73151 43.2666 5.95971L44.8484 5.98071Z" fill="white"/>
<path d="M52.7737 10.4088C52.406 10.3141 52.0916 10.169 51.8309 9.97358C51.5702 9.77814 51.3812 9.53966 51.2644 9.25814C51.1523 8.97787 51.1333 8.67031 51.208 8.33551L52.5115 8.67128C52.4832 8.86403 52.511 9.02515 52.5953 9.15457C52.6805 9.2792 52.8116 9.36425 52.9883 9.40976C53.1699 9.45649 53.3235 9.45244 53.4494 9.39763C53.5763 9.33798 53.6586 9.23351 53.6965 9.08418C53.7281 8.95896 53.7113 8.84432 53.6463 8.74033C53.5856 8.63753 53.5001 8.54365 53.3895 8.45869C53.2835 8.37495 53.1268 8.27049 52.9193 8.14524C52.6202 7.96046 52.3809 7.79107 52.2013 7.63704C52.0214 7.48299 51.8826 7.28817 51.7846 7.05257C51.6865 6.81696 51.6776 6.54022 51.7582 6.22232C51.8777 5.75031 52.1404 5.4255 52.5465 5.24791C52.9538 5.06549 53.4297 5.04439 53.974 5.1846C54.5279 5.32727 54.9402 5.57712 55.211 5.93417C55.4831 6.28642 55.5705 6.70402 55.4737 7.18701L54.1487 6.84572C54.1805 6.67949 54.1531 6.53649 54.0667 6.41669C53.9811 6.29206 53.8525 6.20763 53.6805 6.16334C53.5324 6.12521 53.4028 6.1354 53.2912 6.19393C53.181 6.24762 53.1071 6.34913 53.0691 6.49844C53.0278 6.66221 53.0719 6.80953 53.2015 6.94039C53.3311 7.07126 53.545 7.2315 53.8429 7.4211C54.1396 7.61549 54.3752 7.78911 54.5501 7.94192C54.73 8.09595 54.8695 8.28836 54.9688 8.51914C55.0678 8.74992 55.0792 9.01704 55.0023 9.32048C54.9291 9.60948 54.7887 9.85291 54.5809 10.0508C54.3779 10.2499 54.1204 10.3836 53.8079 10.452C53.4957 10.5204 53.151 10.5059 52.7737 10.4088Z" fill="white"/>
<path d="M57.4739 9.00052C57.6834 8.52866 57.9709 8.15471 58.3364 7.87867C58.704 7.59807 59.1131 7.43696 59.5635 7.39535C60.0204 7.35121 60.4785 7.43279 60.9371 7.64003C61.4994 7.894 61.9141 8.26112 62.1815 8.74138C62.4488 9.22166 62.5353 9.75086 62.4407 10.329L61.1721 9.75605C61.1662 9.51376 61.099 9.30082 60.9698 9.11724C60.8451 8.93567 60.6727 8.79511 60.4524 8.69557C60.097 8.53505 59.7538 8.52978 59.4226 8.67976C59.0914 8.82974 58.8331 9.11341 58.6478 9.53081C58.4625 9.94821 58.4246 10.3315 58.5342 10.6805C58.6439 11.0296 58.8763 11.2844 59.2316 11.4449C59.4521 11.5445 59.671 11.5807 59.8881 11.5536C60.1098 11.5284 60.3124 11.4374 60.4955 11.2805L61.7638 11.8534C61.3991 12.3097 60.9504 12.5971 60.4171 12.7157C59.8858 12.8298 59.339 12.7598 58.7767 12.5059C58.3181 12.2986 57.9517 12.0106 57.6782 11.6419C57.4108 11.2706 57.2578 10.8556 57.2184 10.3967C57.1792 9.93772 57.2644 9.47235 57.4739 9.00052Z" fill="white"/>
<path d="M69.4038 12.7385L66.465 17.0529L65.4231 16.3309L66.6328 14.5547L65.0121 13.4315L63.8024 15.2077L62.7603 14.4856L65.6991 10.1712L66.741 10.8933L65.5899 12.5834L67.2106 13.7065L68.3619 12.0164L69.4038 12.7385Z" fill="white"/>
<path d="M76.8232 19.9576L72.1252 22.5667L71.073 21.4461L72.9832 18.4707L69.9138 20.2118L68.8614 19.0911L71.7243 14.5278L72.6545 15.5185L70.4254 18.6856L73.8036 16.742L74.7592 17.7597L72.6267 21.0296L75.8878 18.9615L76.8232 19.9576Z" fill="white"/>
<path d="M76.3199 27.4867L75.3165 25.8157L74.3718 26.0267L73.6862 24.8848L79.0981 23.7937L79.856 25.0566L76.3897 29.3881L75.6965 28.2336L76.3199 27.4867ZM76.986 26.6963L78.278 25.1488L76.3236 25.5927L76.986 26.6963Z" fill="white"/>
<path d="M80.3432 33.4177C80.3922 33.7239 80.3395 34.0058 80.185 34.2635C80.0349 34.5195 79.8198 34.7025 79.5396 34.8121C79.1352 34.9704 78.7582 34.9525 78.4088 34.7587C78.0658 34.5678 77.7962 34.2173 77.6001 33.7075L76.7255 31.4345L81.5637 29.5407L82.4087 31.7375C82.5994 32.2333 82.6359 32.6646 82.5176 33.0307C82.4013 33.4015 82.1502 33.6625 81.764 33.8134C81.4792 33.925 81.2133 33.9412 80.9661 33.8619C80.7207 33.7873 80.513 33.6394 80.3432 33.4177ZM80.0638 31.4956L80.3632 32.2741C80.4381 32.469 80.5364 32.601 80.6584 32.6705C80.7867 32.7429 80.9336 32.7469 81.099 32.6822C81.2643 32.6174 81.3703 32.5147 81.4166 32.3738C81.4646 32.2378 81.4511 32.0723 81.3764 31.8777L81.0768 31.0992L80.0638 31.4956ZM78.4709 33.1269C78.5475 33.326 78.6501 33.4619 78.7784 33.5343C78.913 33.6096 79.0653 33.6141 79.2353 33.5474C79.4053 33.4808 79.5165 33.3707 79.5682 33.2171C79.6219 33.0682 79.6106 32.894 79.5337 32.6949L79.2023 31.8329L78.1341 32.251L78.4709 33.1269Z" fill="white"/>
<path d="M5.66098 47.4591H4.95129V44.3944H5.66098V47.4591Z" fill="white"/>
<path d="M12.7076 59.4262C12.9801 59.9047 13.1262 60.376 13.1461 60.8403C13.1728 61.3063 13.0704 61.7356 12.8389 62.1275C12.6142 62.5215 12.2753 62.8496 11.8223 63.1118C11.3693 63.3743 10.9196 63.5028 10.4733 63.4976C10.0295 63.4968 9.61483 63.3673 9.22918 63.1091C8.85024 62.8528 8.52457 62.4855 8.25216 62.007L7.4165 60.539L11.872 57.9583L12.7076 59.4262ZM8.84837 61.6615C9.14776 62.1874 9.51828 62.5088 9.95986 62.6256C10.4015 62.7425 10.8787 62.6525 11.3916 62.3555C11.9087 62.0557 12.2328 61.6819 12.3639 61.2332C12.495 60.7846 12.4108 60.2974 12.1114 59.7715L11.6955 59.0407L8.43236 60.9308L8.84837 61.6615Z" fill="white"/>
<path d="M14.9538 67.8726C14.8349 67.9696 14.7213 68.0491 14.6131 68.1118L12.6581 65.6692C12.4205 65.8946 12.2931 66.1549 12.276 66.4499C12.2588 66.7449 12.3492 67.0164 12.5474 67.2639C12.8322 67.6199 13.181 67.7509 13.5939 67.6576L14.1651 68.3712C13.7963 68.5117 13.4157 68.5311 13.0235 68.4287C12.6382 68.327 12.2954 68.0886 11.9952 67.7136C11.7506 67.4081 11.5979 67.0788 11.5371 66.7258C11.4832 66.3736 11.5233 66.0279 11.6572 65.6888C11.7982 65.3503 12.0316 65.0486 12.3575 64.7831C12.6835 64.5177 13.0218 64.3509 13.3725 64.2825C13.7301 64.2149 14.072 64.2465 14.3982 64.377C14.7274 64.5114 15.0174 64.7351 15.2681 65.0486C15.5096 65.3501 15.6596 65.6722 15.718 66.0142C15.7765 66.3562 15.7394 66.69 15.6069 67.0151C15.4783 67.337 15.2605 67.6228 14.9538 67.8726ZM14.6083 67.0136C14.8468 66.8131 14.9708 66.5685 14.9803 66.2794C14.9898 65.9906 14.8939 65.7207 14.6927 65.4691C14.5101 65.2409 14.2809 65.105 14.0051 65.061C13.7332 65.0143 13.4622 65.0752 13.192 65.2439L14.6083 67.0136ZM16.532 64.9777L14.8788 64.206L15.362 63.8125L17.09 64.5234L16.532 64.9777Z" fill="white"/>
<path d="M16.5038 71.3812L19.6038 69.7124L20.2607 70.3249L16.3557 72.279L15.6174 71.5905L17.2478 67.5157L17.9101 68.1331L16.5038 71.3812Z" fill="white"/>
<path d="M23.4354 75.0057C23.3491 75.1327 23.263 75.242 23.1771 75.3333L20.6095 73.5591C20.446 73.8439 20.398 74.13 20.4655 74.4176C20.533 74.7054 20.6968 74.939 20.957 75.1187C21.3311 75.3772 21.7026 75.4021 22.0715 75.1931L22.8217 75.7113C22.5084 75.9529 22.1493 76.0814 21.7445 76.0968C21.3465 76.111 20.9503 75.982 20.5559 75.7093C20.2347 75.4876 19.9948 75.2162 19.8361 74.8958C19.6843 74.5739 19.6244 74.2312 19.6563 73.8675C19.695 73.5026 19.8327 73.146 20.0695 72.7972C20.3062 72.4488 20.5829 72.191 20.8994 72.024C21.2227 71.8557 21.5592 71.7869 21.9087 71.8177C22.2623 71.851 22.6038 71.9815 22.9332 72.2092C23.2503 72.4284 23.4855 72.6933 23.6388 73.004C23.7922 73.315 23.8516 73.6451 23.8171 73.995C23.7855 74.3408 23.6582 74.6776 23.4354 75.0057ZM22.8601 74.2826C23.0315 74.0216 23.0807 73.7512 23.0076 73.4718C22.9346 73.1922 22.7659 72.9613 22.5016 72.7786C22.2617 72.6128 22.0035 72.5489 21.7269 72.5867C21.453 72.6205 21.2107 72.7575 20.9999 72.9973L22.8601 74.2826Z" fill="white"/>
<path d="M27.4776 73.3868L24.922 78.2657L24.1769 77.8685L26.7324 72.9899L27.4776 73.3868Z" fill="white"/>
<path d="M28.6991 80.0566C28.3406 79.9169 28.0473 79.7093 27.8199 79.4344C27.5942 79.1545 27.4555 78.8342 27.4035 78.4728C27.3532 78.1069 27.4037 77.7269 27.5545 77.3326C27.7036 76.9432 27.9209 76.6307 28.2063 76.3956C28.4919 76.1605 28.8127 76.019 29.169 75.9713C29.5256 75.9233 29.8854 75.9703 30.2486 76.1117C30.6118 76.2532 30.9095 76.4625 31.1416 76.7393C31.3737 77.0162 31.5172 77.3384 31.5719 77.706C31.6266 78.0738 31.5795 78.4524 31.4304 78.8419C31.2813 79.2316 31.0615 79.543 30.7715 79.7764C30.4815 80.0098 30.1527 80.1508 29.7853 80.1997C29.4246 80.2457 29.0623 80.198 28.6991 80.0566ZM28.9628 79.3678C29.1651 79.4466 29.3721 79.4712 29.5843 79.4419C29.8006 79.4143 30.0014 79.3246 30.1863 79.1729C30.3713 79.0211 30.517 78.8061 30.6234 78.5277C30.7299 78.2496 30.7666 77.9948 30.7338 77.7634C30.7025 77.5275 30.6182 77.3267 30.4807 77.1614C30.3432 76.9959 30.1734 76.8738 29.9711 76.795C29.7688 76.7162 29.5618 76.6916 29.3497 76.7209C29.1424 76.752 28.9507 76.8452 28.775 77.0008C28.6013 77.1514 28.4611 77.3659 28.3544 77.6443C28.1964 78.0569 28.1775 78.4173 28.2975 78.725C28.4236 79.03 28.6454 79.2443 28.9628 79.3678Z" fill="white"/>
<path d="M34.4904 78.1916C34.6693 78.037 34.8928 77.9227 35.1604 77.8481C35.4283 77.7736 35.7139 77.7691 36.0175 77.8347C36.3647 77.9095 36.6616 78.0649 36.909 78.3012C37.1621 78.5336 37.3375 78.8232 37.4356 79.1697C37.5334 79.5162 37.5398 79.891 37.4543 80.2946C37.3688 80.6981 37.2101 81.0426 36.9783 81.3281C36.7476 81.6088 36.4684 81.8079 36.1412 81.9254C35.8198 82.039 35.4855 82.0586 35.1385 81.9838C34.8349 81.9182 34.5779 81.7994 34.3675 81.6269C34.158 81.4497 33.9983 81.2526 33.8879 81.0356L33.3596 83.5293L32.5356 83.3519L33.7916 77.4233L34.6156 77.6011L34.4904 78.1916ZM36.6158 80.1137C36.6744 79.8368 36.667 79.586 36.5936 79.3618C36.5261 79.1336 36.409 78.9485 36.2427 78.8058C36.0823 78.6594 35.896 78.5632 35.6838 78.5175C35.4766 78.473 35.2676 78.4837 35.0572 78.5503C34.8512 78.6177 34.6688 78.7409 34.5099 78.9204C34.3559 79.1006 34.2494 79.3293 34.1908 79.6064C34.1321 79.8835 34.1361 80.1386 34.2026 80.3715C34.2751 80.6006 34.3914 80.7883 34.552 80.9347C34.7171 81.0821 34.9034 81.1783 35.1107 81.223C35.3228 81.2685 35.5318 81.2578 35.7375 81.1902C35.9492 81.1189 36.1326 80.9908 36.2878 80.8057C36.4477 80.6215 36.5569 80.3908 36.6158 80.1137Z" fill="white"/>
<path d="M40.3165 79.155C40.4686 78.9734 40.6709 78.8242 40.9232 78.7074C41.1758 78.5906 41.457 78.5401 41.7672 78.5555C42.1215 78.5732 42.4394 78.6788 42.7211 78.8719C43.0079 79.0606 43.2272 79.3179 43.379 79.644C43.5308 79.9701 43.5964 80.3392 43.5762 80.7513C43.5559 81.1634 43.4542 81.5292 43.2706 81.8484C43.0875 82.1628 42.8436 82.4044 42.5392 82.5734C42.2401 82.7377 41.9133 82.8108 41.5587 82.7931C41.2487 82.7777 40.9762 82.7019 40.7411 82.5657C40.5063 82.4245 40.317 82.2558 40.1739 82.0594L40.0487 84.6066L39.2069 84.5643L39.5046 78.5096L40.3461 78.5518L40.3165 79.155ZM42.7196 80.7085C42.7336 80.4257 42.6866 80.1793 42.5784 79.9698C42.4754 79.7556 42.3305 79.5915 42.1437 79.4777C41.9621 79.3591 41.7628 79.2945 41.5464 79.2835C41.3347 79.2731 41.1302 79.3176 40.9328 79.4173C40.7404 79.5169 40.58 79.6683 40.4516 79.8709C40.3281 80.0737 40.2594 80.3168 40.2456 80.5996C40.2315 80.8828 40.2761 81.1338 40.3786 81.353C40.4866 81.5675 40.6315 81.7341 40.8131 81.8526C40.9996 81.9714 41.1987 82.036 41.4104 82.0467C41.627 82.0574 41.8315 82.0129 42.024 81.913C42.2216 81.8084 42.3823 81.6523 42.506 81.4445C42.6346 81.2369 42.7058 80.9916 42.7196 80.7085Z" fill="white"/>
<path d="M49.2536 80.1908C49.2696 80.3439 49.2746 80.4836 49.2679 80.6091L46.1726 80.9389C46.2315 81.2625 46.3789 81.5118 46.6152 81.6866C46.8518 81.8613 47.1268 81.9321 47.4405 81.8986C47.8912 81.8506 48.1898 81.6262 48.3362 81.2257L49.2405 81.1293C49.1573 81.5183 48.9668 81.8509 48.6686 82.1275C48.3749 82.3989 47.9902 82.5597 47.5149 82.6104C47.1278 82.6517 46.7707 82.6022 46.4437 82.4623C46.1214 82.3166 45.8553 82.0949 45.6456 81.7974C45.4405 81.4944 45.3158 81.1328 45.2717 80.7125C45.2279 80.2924 45.2725 79.9151 45.406 79.581C45.544 79.2415 45.7557 78.9689 46.0415 78.7636C46.3321 78.5575 46.6761 78.4335 47.0731 78.3912C47.4553 78.3505 47.8047 78.3982 48.1213 78.5344C48.4377 78.6706 48.6955 78.8831 48.8943 79.1717C49.0925 79.4555 49.2122 79.7953 49.2536 80.1908ZM48.351 80.017C48.3133 79.7061 48.177 79.4682 47.9417 79.3034C47.7063 79.1384 47.4294 79.073 47.1108 79.1068C46.8217 79.1376 46.5839 79.2579 46.3979 79.4677C46.2111 79.6728 46.1147 79.9355 46.1086 80.2559L48.351 80.017Z" fill="white"/>
<path d="M54.2157 77.0043L55.2509 80.978L54.4358 81.1939L54.3136 80.7252C54.2276 80.9228 54.0923 81.0975 53.9075 81.2494C53.7264 81.395 53.5189 81.4987 53.2855 81.5606C52.9755 81.6428 52.6798 81.6518 52.3982 81.5876C52.1212 81.5223 51.8782 81.3811 51.6688 81.1641C51.464 80.9461 51.3149 80.6566 51.2208 80.2959L50.6121 77.9595L51.4201 77.7452L51.997 79.9594C52.0896 80.315 52.2491 80.5658 52.4755 80.7112C52.7008 80.8522 52.9659 80.882 53.271 80.8012C53.576 80.7202 53.7924 80.5629 53.9198 80.3285C54.0509 80.0881 54.0701 79.7901 53.9775 79.4344L53.4006 77.2203L54.2157 77.0043Z" fill="white"/>
<path d="M57.0917 76.5467C57.1277 76.3066 57.2178 76.0951 57.3622 75.9122C57.5091 75.723 57.7129 75.5749 57.9729 75.4677L58.3021 76.2828L58.1037 76.3643C57.7979 76.49 57.5968 76.664 57.5002 76.886C57.4083 77.1065 57.4404 77.4099 57.5966 77.7967L58.4058 79.7991L57.6254 80.1199L56.088 76.3151L56.8684 75.9944L57.0917 76.5467Z" fill="white"/>
<path d="M63.9325 72.9949L63.2963 73.403L65.1136 76.2845L64.3963 76.7448L62.5789 73.8633L62.1736 74.1233L61.8044 73.5382L62.2101 73.2782L62.0553 73.0329C61.804 72.6342 61.7253 72.2783 61.8195 71.9644C61.9151 71.6437 62.1876 71.3395 62.6366 71.0512L63.0136 71.649C62.7975 71.7876 62.6721 71.9271 62.6376 72.067C62.6006 72.2027 62.6455 72.3713 62.7726 72.5726L62.9274 72.8179L63.5634 72.4098L63.9325 72.9949Z" fill="white"/>
<path d="M65.9127 71.4039C65.8819 71.163 65.9107 70.9346 65.9997 70.7186C66.0896 70.4959 66.2449 70.2971 66.4659 70.1221L67.0046 70.8141L66.836 70.9478C66.5763 71.1533 66.4302 71.3763 66.3981 71.6169C66.3698 71.854 66.4834 72.1369 66.7392 72.4654L68.0629 74.1663L67.4001 74.6913L64.8846 71.4595L65.5475 70.9346L65.9127 71.4039Z" fill="white"/>
<path d="M71.9613 70.7524C71.6925 71.0293 71.3876 71.2187 71.0471 71.3206C70.7031 71.4193 70.3564 71.421 70.007 71.3261C69.6538 71.2279 69.3278 71.0308 69.0284 70.7353C68.7327 70.443 68.5344 70.1181 68.4331 69.7607C68.3318 69.403 68.3301 69.0498 68.4277 68.7008C68.525 68.3519 68.7101 68.0369 68.9826 67.7566C69.2549 67.476 69.5632 67.2828 69.9072 67.1774C70.2512 67.0718 70.6013 67.0666 70.9576 67.1613C71.3142 67.256 71.6402 67.4496 71.9359 67.7417C72.2316 68.034 72.4285 68.3606 72.5261 68.7217C72.6239 69.0826 72.6224 69.443 72.5214 69.8027C72.4206 70.1551 72.2338 70.4718 71.9613 70.7524ZM71.4386 70.2357C71.5904 70.0793 71.6947 69.8974 71.7518 69.6893C71.8125 69.4778 71.8102 69.2564 71.7452 69.0249C71.6801 68.7935 71.5419 68.5736 71.3307 68.3648C71.1195 68.1563 70.9019 68.0213 70.6784 67.9604C70.4512 67.896 70.2351 67.8948 70.0301 67.9567C69.8251 68.0186 69.6467 68.1274 69.4949 68.2838C69.3431 68.4401 69.2389 68.622 69.1817 68.8301C69.128 69.0346 69.1371 69.2489 69.209 69.4731C69.2776 69.6938 69.4175 69.9086 69.6287 70.1174C69.9419 70.4271 70.2625 70.5871 70.5902 70.5978C70.9177 70.6013 71.2006 70.4807 71.4386 70.2357Z" fill="white"/>
<path d="M72.7205 63.2545C72.9068 62.9915 73.1271 62.7959 73.3814 62.6677C73.6387 62.5354 73.9151 62.4872 74.2108 62.523C74.5065 62.5588 74.8047 62.6851 75.1053 62.9018L77.0604 64.3106L76.5747 64.9961L74.7222 63.6611C74.4252 63.4474 74.1458 63.3589 73.8834 63.3959C73.617 63.43 73.392 63.5764 73.2087 63.8354C73.0253 64.0941 72.9595 64.3583 73.011 64.6275C73.0613 64.89 73.235 65.1281 73.5317 65.3419L75.3843 66.6768L74.8944 67.3686L71.5801 64.9802L72.07 64.2885L72.4489 64.5616C72.3928 64.3501 72.3883 64.1299 72.4352 63.901C72.4852 63.6683 72.5803 63.4526 72.7205 63.2545Z" fill="white"/>
<path d="M75.797 59.6671L77.7861 60.7379C77.9209 60.8104 78.035 60.8326 78.1284 60.804C78.2198 60.7684 78.3061 60.674 78.3874 60.5206L78.6309 60.06L79.2506 60.3936L78.9372 60.9857C78.7585 61.3235 78.5434 61.5399 78.2918 61.6356C78.0399 61.7311 77.7381 61.6841 77.3859 61.4945L75.3969 60.4234L75.1706 60.8512L74.564 60.5246L74.7902 60.0968L73.8969 59.6159L74.2971 58.8595L75.1906 59.3405L75.6571 58.4591L76.2635 58.7855L75.797 59.6671Z" fill="white"/>
<path d="M81.0736 44.0091H81.7833V47.0738H81.0736V44.0091Z" fill="white"/>
</svg>
