<svg width="307" height="102" viewBox="0 0 307 102" fill="none" xmlns="http://www.w3.org/2000/svg">
<path d="M26 94.959C39.8071 94.959 51 83.7661 51 69.959C51 56.1519 39.8071 44.959 26 44.959C12.1929 44.959 1 56.1519 1 69.959C1 83.7661 12.1929 94.959 26 94.959Z" stroke="#210949" stroke-width="2" stroke-dasharray="4 4"/>
<path d="M128.5 98.8248C149.211 98.8248 166 82.0355 166 61.3248C166 40.6142 149.211 23.8248 128.5 23.8248C107.789 23.8248 91 40.6142 91 61.3248C91 82.0355 107.789 98.8248 128.5 98.8248Z" stroke="#210949" stroke-width="2" stroke-dasharray="4 4"/>
<path d="M256 101C283.614 101 306 78.6142 306 51C306 23.3858 283.614 1 256 1C228.386 1 206 23.3858 206 51C206 78.6142 228.386 101 256 101Z" stroke="#210949" stroke-width="2" stroke-dasharray="4 4"/>
</svg>
