<svg width="114" height="114" viewBox="0 0 114 114" fill="none" xmlns="http://www.w3.org/2000/svg">
<g clip-path="url(#clip0_11_294)">
<path d="M30.7404 31.3149C24.9275 33.4102 21.4466 33.613 19.7737 31.9401C17.6531 29.8195 19.1477 25.6837 20.7301 21.3047C21.9789 17.8491 23.3949 13.9322 22.136 12.6733C20.7504 11.2877 15.9244 12.7493 13.1701 13.7446C12.933 13.8252 12.6737 13.8095 12.4481 13.701C12.2224 13.5924 12.0484 13.3996 11.9633 13.1641C11.8783 12.9285 11.8891 12.669 11.9935 12.4414C12.0978 12.2137 12.2873 12.0361 12.5212 11.9467C18.3264 9.84376 21.8116 9.64521 23.4879 11.3215C25.6085 13.4421 24.1139 17.5779 22.5314 21.9569C21.2793 25.4091 19.8633 29.326 21.1222 30.5849C22.5078 31.9705 27.3338 30.5089 30.0881 29.5136C30.3252 29.433 30.5845 29.4487 30.8101 29.5573C31.0358 29.6658 31.2098 29.8586 31.2949 30.0942C31.3799 30.3297 31.369 30.5892 31.2647 30.8169C31.1604 31.0445 30.9709 31.2221 30.737 31.3115L30.7404 31.3149Z" fill="#210949"/>
</g>
<g clip-path="url(#clip1_11_294)">
<path d="M48.3141 48.8886C42.5013 50.984 39.0203 51.1867 37.3475 49.5139C35.2268 47.3932 36.7214 43.2575 38.3039 38.8784C39.5526 35.4228 40.9686 31.5059 39.7098 30.247C38.3241 28.8614 33.4981 30.3231 30.7438 31.3183C30.5067 31.3989 30.2475 31.3833 30.0218 31.2747C29.7961 31.1661 29.6221 30.9734 29.5371 30.7378C29.4521 30.5023 29.4629 30.2428 29.5672 30.0151C29.6715 29.7874 29.861 29.6098 30.0949 29.5204C35.9002 27.4175 39.3853 27.2189 41.0616 28.8952C43.1823 31.0159 41.6876 35.1516 40.1052 39.5307C38.853 42.9829 37.437 46.8998 38.6959 48.1587C40.0815 49.5443 44.9075 48.0826 47.6619 47.0873C47.899 47.0068 48.1582 47.0224 48.3839 47.131C48.6095 47.2396 48.7836 47.4323 48.8686 47.6679C48.9536 47.9034 48.9428 48.1629 48.8385 48.3906C48.7341 48.6182 48.5446 48.7959 48.3107 48.8853L48.3141 48.8886Z" fill="#210949"/>
</g>
<g clip-path="url(#clip2_11_294)">
<path d="M65.8877 66.4623C60.0749 68.5576 56.5939 68.7604 54.9211 67.0875C52.8004 64.9668 54.295 60.8311 55.8775 56.452C57.1262 52.9964 58.5423 49.0795 57.2834 47.8206C55.8978 46.435 51.0718 47.8967 48.3174 48.892C48.0803 48.9725 47.8211 48.9569 47.5954 48.8483C47.3697 48.7397 47.1957 48.547 47.1107 48.3114C47.0257 48.0759 47.0365 47.8164 47.1408 47.5887C47.2451 47.3611 47.4346 47.1834 47.6685 47.094C53.4738 44.9911 56.9589 44.7926 58.6352 46.4688C60.7559 48.5895 59.2613 52.7252 57.6788 57.1043C56.4267 60.5565 55.0106 64.4734 56.2695 65.7323C57.6551 67.1179 62.4811 65.6562 65.2355 64.661C65.4726 64.5804 65.7318 64.596 65.9575 64.7046C66.1831 64.8132 66.3572 65.0059 66.4422 65.2415C66.5272 65.477 66.5164 65.7365 66.4121 65.9642C66.3077 66.1918 66.1183 66.3695 65.8843 66.4589L65.8877 66.4623Z" fill="#210949"/>
</g>
<g clip-path="url(#clip3_11_294)">
<path d="M83.4614 84.036C77.6486 86.1313 74.1677 86.3341 72.4948 84.6612C70.3741 82.5405 71.8687 78.4048 73.4512 74.0257C74.7 70.5702 76.116 66.6532 74.8571 65.3944C73.4715 64.0087 68.6455 65.4704 65.8911 66.4657C65.654 66.5463 65.3948 66.5306 65.1691 66.422C64.9435 66.3135 64.7694 66.1207 64.6844 65.8851C64.5994 65.6496 64.6102 65.3901 64.7145 65.1624C64.8189 64.9348 65.0084 64.7572 65.2423 64.6678C71.0475 62.5648 74.5327 62.3663 76.2089 64.0425C78.3296 66.1632 76.835 70.2989 75.2525 74.678C74.0004 78.1302 72.5844 82.0471 73.8432 83.306C75.2289 84.6916 80.0549 83.23 82.8092 82.2347C83.0463 82.1541 83.3055 82.1698 83.5312 82.2783C83.7569 82.3869 83.9309 82.5797 84.0159 82.8152C84.1009 83.0508 84.0901 83.3103 83.9858 83.5379C83.8815 83.7656 83.692 83.9432 83.4581 84.0326L83.4614 84.036Z" fill="#210949"/>
</g>
<g clip-path="url(#clip4_11_294)">
<path d="M101.035 101.61C95.2223 103.705 91.7414 103.908 90.0685 102.235C87.9479 100.114 89.4425 95.9784 91.0249 91.5994C92.2737 88.1438 93.6897 84.2269 92.4308 82.968C91.0452 81.5824 86.2192 83.044 83.4649 84.0393C83.2278 84.1199 82.9685 84.1042 82.7429 83.9956C82.5172 83.8871 82.3432 83.6943 82.2581 83.4588C82.1731 83.2232 82.1839 82.9637 82.2883 82.7361C82.3926 82.5084 82.5821 82.3308 82.816 82.2414C88.6212 80.1384 92.1064 79.9399 93.7827 81.6162C95.9033 83.7368 94.4087 87.8726 92.8262 92.2516C91.5741 95.7038 90.1581 99.6207 91.417 100.88C92.8026 102.265 97.6286 100.804 100.383 99.8083C100.62 99.7277 100.879 99.7434 101.105 99.8519C101.331 99.9605 101.505 100.153 101.59 100.389C101.675 100.624 101.664 100.884 101.56 101.112C101.455 101.339 101.266 101.517 101.032 101.606L101.035 101.61Z" fill="#210949"/>
</g>
<defs>
<clipPath id="clip0_11_294">
<rect width="30.5882" height="30.5882" fill="white" transform="translate(21.6292) rotate(45)"/>
</clipPath>
<clipPath id="clip1_11_294">
<rect width="30.5882" height="30.5882" fill="white" transform="translate(39.2029 17.5737) rotate(45)"/>
</clipPath>
<clipPath id="clip2_11_294">
<rect width="30.5882" height="30.5882" fill="white" transform="translate(56.7765 35.1473) rotate(45)"/>
</clipPath>
<clipPath id="clip3_11_294">
<rect width="30.5882" height="30.5882" fill="white" transform="translate(74.3502 52.7211) rotate(45)"/>
</clipPath>
<clipPath id="clip4_11_294">
<rect width="30.5882" height="30.5882" fill="white" transform="translate(91.924 70.2947) rotate(45)"/>
</clipPath>
</defs>
</svg>
