<svg width="130" height="30" viewBox="0 0 130 30" fill="none" xmlns="http://www.w3.org/2000/svg">
<path d="M28.6764 14.8125V21.293C28.6764 21.5385 28.5757 21.774 28.3965 21.9476C28.2172 22.1213 27.9741 22.2188 27.7206 22.2188H15.2941C15.0406 22.2188 14.7974 22.1213 14.6182 21.9476C14.4389 21.774 14.3382 21.5385 14.3382 21.293V9.25782H3.82351V14.8125C3.82351 15.0581 3.7228 15.2935 3.54354 15.4672C3.36427 15.6408 3.12114 15.7383 2.86763 15.7383C2.61411 15.7383 2.37098 15.6408 2.19171 15.4672C2.01245 15.2935 1.91174 15.0581 1.91174 14.8125V8.33203C1.91174 8.0865 2.01245 7.85102 2.19171 7.67741C2.37098 7.50379 2.61411 7.40625 2.86763 7.40625H15.2941C15.5476 7.40625 15.7907 7.50379 15.97 7.67741C16.1493 7.85102 16.25 8.0865 16.25 8.33203V20.3672H26.7647V14.8125C26.7647 14.567 26.8654 14.3315 27.0447 14.1579C27.2239 13.9843 27.4671 13.8867 27.7206 13.8867C27.9741 13.8867 28.2172 13.9843 28.3965 14.1579C28.5757 14.3315 28.6764 14.567 28.6764 14.8125Z" fill="#210949"/>
<path d="M53.5294 14.8125V21.293C53.5294 21.5385 53.4286 21.774 53.2494 21.9476C53.0701 22.1213 52.827 22.2188 52.5735 22.2188H40.147C39.8935 22.2188 39.6504 22.1213 39.4711 21.9476C39.2918 21.774 39.1911 21.5385 39.1911 21.293V9.25782H28.6764V14.8125C28.6764 15.0581 28.5757 15.2935 28.3964 15.4672C28.2172 15.6408 27.974 15.7383 27.7205 15.7383C27.467 15.7383 27.2239 15.6408 27.0446 15.4672C26.8654 15.2935 26.7646 15.0581 26.7646 14.8125V8.33203C26.7646 8.0865 26.8654 7.85102 27.0446 7.67741C27.2239 7.50379 27.467 7.40625 27.7205 7.40625H40.147C40.4005 7.40625 40.6437 7.50379 40.8229 7.67741C41.0022 7.85102 41.1029 8.0865 41.1029 8.33203V20.3672H51.6176V14.8125C51.6176 14.567 51.7183 14.3315 51.8976 14.1579C52.0768 13.9843 52.32 13.8867 52.5735 13.8867C52.827 13.8867 53.0701 13.9843 53.2494 14.1579C53.4286 14.3315 53.5294 14.567 53.5294 14.8125Z" fill="#210949"/>
<path d="M78.3823 14.8125V21.293C78.3823 21.5385 78.2816 21.774 78.1023 21.9476C77.923 22.1213 77.6799 22.2188 77.4264 22.2188H64.9999C64.7464 22.2188 64.5033 22.1213 64.324 21.9476C64.1447 21.774 64.044 21.5385 64.044 21.293V9.25782H53.5293V14.8125C53.5293 15.0581 53.4286 15.2935 53.2493 15.4672C53.0701 15.6408 52.827 15.7383 52.5734 15.7383C52.3199 15.7383 52.0768 15.6408 51.8975 15.4672C51.7183 15.2935 51.6176 15.0581 51.6176 14.8125V8.33203C51.6176 8.0865 51.7183 7.85102 51.8975 7.67741C52.0768 7.50379 52.3199 7.40625 52.5734 7.40625H64.9999C65.2534 7.40625 65.4966 7.50379 65.6758 7.67741C65.8551 7.85102 65.9558 8.0865 65.9558 8.33203V20.3672H76.4705V14.8125C76.4705 14.567 76.5712 14.3315 76.7505 14.1579C76.9297 13.9843 77.1729 13.8867 77.4264 13.8867C77.6799 13.8867 77.923 13.9843 78.1023 14.1579C78.2816 14.3315 78.3823 14.567 78.3823 14.8125Z" fill="#210949"/>
<path d="M103.235 14.8125V21.293C103.235 21.5385 103.135 21.774 102.955 21.9476C102.776 22.1213 102.533 22.2188 102.279 22.2188H89.8529C89.5994 22.2188 89.3563 22.1213 89.177 21.9476C88.9978 21.774 88.8971 21.5385 88.8971 21.293V9.25782H78.3823V14.8125C78.3823 15.0581 78.2816 15.2935 78.1024 15.4672C77.9231 15.6408 77.68 15.7383 77.4265 15.7383C77.1729 15.7383 76.9298 15.6408 76.7506 15.4672C76.5713 15.2935 76.4706 15.0581 76.4706 14.8125V8.33203C76.4706 8.0865 76.5713 7.85102 76.7506 7.67741C76.9298 7.50379 77.1729 7.40625 77.4265 7.40625H89.8529C90.1065 7.40625 90.3496 7.50379 90.5288 7.67741C90.7081 7.85102 90.8088 8.0865 90.8088 8.33203V20.3672H101.324V14.8125C101.324 14.567 101.424 14.3315 101.603 14.1579C101.783 13.9843 102.026 13.8867 102.279 13.8867C102.533 13.8867 102.776 13.9843 102.955 14.1579C103.135 14.3315 103.235 14.567 103.235 14.8125Z" fill="#210949"/>
<path d="M128.088 14.8125V21.2929C128.088 21.5385 127.987 21.774 127.808 21.9476C127.629 22.1212 127.386 22.2187 127.132 22.2187H114.706C114.452 22.2187 114.209 22.1212 114.03 21.9476C113.851 21.774 113.75 21.5385 113.75 21.2929V9.25776H103.235V14.8125C103.235 15.058 103.135 15.2935 102.955 15.4671C102.776 15.6407 102.533 15.7382 102.279 15.7382C102.026 15.7382 101.783 15.6407 101.603 15.4671C101.424 15.2935 101.323 15.058 101.323 14.8125V8.33197C101.323 8.08644 101.424 7.85096 101.603 7.67734C101.783 7.50373 102.026 7.40619 102.279 7.40619H114.706C114.959 7.40619 115.202 7.50373 115.382 7.67734C115.561 7.85096 115.662 8.08644 115.662 8.33197V20.3672H126.176V14.8125C126.176 14.5669 126.277 14.3315 126.456 14.1578C126.636 13.9842 126.879 13.8867 127.132 13.8867C127.386 13.8867 127.629 13.9842 127.808 14.1578C127.987 14.3315 128.088 14.5669 128.088 14.8125Z" fill="#210949"/>
</svg>
