<svg width="203" height="205" viewBox="0 0 203 205" fill="none" xmlns="http://www.w3.org/2000/svg">
<path d="M160.5 84C183.42 84 202 65.4198 202 42.5C202 19.5802 183.42 1 160.5 1C137.58 1 119 19.5802 119 42.5C119 65.4198 137.58 84 160.5 84Z" stroke="#210949" stroke-width="2" stroke-dasharray="4 4"/>
<circle cx="1.86585" cy="38.8659" r="1.86585" fill="#210949"/>
<circle cx="1.86585" cy="53.7927" r="1.86585" fill="#210949"/>
<circle cx="1.86585" cy="68.7195" r="1.86585" fill="#210949"/>
<circle cx="1.86585" cy="83.6464" r="1.86585" fill="#210949"/>
<circle cx="1.86585" cy="98.5732" r="1.86585" fill="#210949"/>
<circle cx="1.86585" cy="113.5" r="1.86585" fill="#210949"/>
<circle cx="1.86585" cy="128.427" r="1.86585" fill="#210949"/>
<circle cx="1.86585" cy="143.354" r="1.86585" fill="#210949"/>
<circle cx="1.86585" cy="158.28" r="1.86585" fill="#210949"/>
<circle cx="1.86585" cy="173.207" r="1.86585" fill="#210949"/>
<circle cx="1.86585" cy="188.134" r="1.86585" fill="#210949"/>
<circle cx="1.86585" cy="202.866" r="1.86585" fill="#210949"/>
<circle cx="16.7927" cy="38.8659" r="1.86585" fill="#210949"/>
<circle cx="16.7927" cy="53.7927" r="1.86585" fill="#210949"/>
<circle cx="16.7927" cy="68.7195" r="1.86585" fill="#210949"/>
<circle cx="16.7927" cy="83.6464" r="1.86585" fill="#210949"/>
<circle cx="16.7927" cy="98.5732" r="1.86585" fill="#210949"/>
<circle cx="16.7927" cy="113.5" r="1.86585" fill="#210949"/>
<circle cx="16.7927" cy="128.427" r="1.86585" fill="#210949"/>
<circle cx="16.7927" cy="143.354" r="1.86585" fill="#210949"/>
<circle cx="16.7927" cy="158.28" r="1.86585" fill="#210949"/>
<circle cx="16.7927" cy="173.207" r="1.86585" fill="#210949"/>
<circle cx="16.7927" cy="188.134" r="1.86585" fill="#210949"/>
<circle cx="16.7927" cy="202.866" r="1.86585" fill="#210949"/>
<circle cx="31.7195" cy="38.8659" r="1.86585" fill="#210949"/>
<circle cx="31.7195" cy="53.7927" r="1.86585" fill="#210949"/>
<circle cx="31.7195" cy="68.7195" r="1.86585" fill="#210949"/>
<circle cx="31.7195" cy="83.6464" r="1.86585" fill="#210949"/>
<circle cx="31.7195" cy="98.5732" r="1.86585" fill="#210949"/>
<circle cx="31.7195" cy="113.5" r="1.86585" fill="#210949"/>
<circle cx="31.7195" cy="128.427" r="1.86585" fill="#210949"/>
<circle cx="31.7195" cy="143.354" r="1.86585" fill="#210949"/>
<circle cx="31.7195" cy="158.28" r="1.86585" fill="#210949"/>
<circle cx="31.7195" cy="173.207" r="1.86585" fill="#210949"/>
<circle cx="31.7195" cy="188.134" r="1.86585" fill="#210949"/>
<circle cx="31.7195" cy="202.866" r="1.86585" fill="#210949"/>
<circle cx="46.6464" cy="38.8659" r="1.86585" fill="#210949"/>
<circle cx="46.6464" cy="53.7927" r="1.86585" fill="#210949"/>
<circle cx="46.6464" cy="68.7195" r="1.86585" fill="#210949"/>
<circle cx="46.6464" cy="83.6464" r="1.86585" fill="#210949"/>
<circle cx="46.6464" cy="98.5732" r="1.86585" fill="#210949"/>
<circle cx="46.6464" cy="113.5" r="1.86585" fill="#210949"/>
<circle cx="46.6464" cy="128.427" r="1.86585" fill="#210949"/>
<circle cx="46.6464" cy="143.354" r="1.86585" fill="#210949"/>
<circle cx="46.6464" cy="158.28" r="1.86585" fill="#210949"/>
<circle cx="46.6464" cy="173.207" r="1.86585" fill="#210949"/>
<circle cx="46.6464" cy="188.134" r="1.86585" fill="#210949"/>
<circle cx="46.6464" cy="202.866" r="1.86585" fill="#210949"/>
<circle cx="61.5731" cy="38.8659" r="1.86585" fill="#210949"/>
<circle cx="61.5731" cy="53.7927" r="1.86585" fill="#210949"/>
<circle cx="61.5731" cy="68.7195" r="1.86585" fill="#210949"/>
<circle cx="61.5731" cy="83.6464" r="1.86585" fill="#210949"/>
<circle cx="61.5731" cy="98.5732" r="1.86585" fill="#210949"/>
<circle cx="61.5731" cy="113.5" r="1.86585" fill="#210949"/>
<circle cx="61.5731" cy="128.427" r="1.86585" fill="#210949"/>
<circle cx="61.5731" cy="143.354" r="1.86585" fill="#210949"/>
<circle cx="61.5731" cy="158.28" r="1.86585" fill="#210949"/>
<circle cx="61.5731" cy="173.207" r="1.86585" fill="#210949"/>
<circle cx="61.5731" cy="188.134" r="1.86585" fill="#210949"/>
<circle cx="61.5731" cy="202.866" r="1.86585" fill="#210949"/>
<circle cx="76.5" cy="38.8659" r="1.86585" fill="#210949"/>
<circle cx="76.5" cy="53.7927" r="1.86585" fill="#210949"/>
<circle cx="76.5" cy="68.7195" r="1.86585" fill="#210949"/>
<circle cx="76.5" cy="83.6464" r="1.86585" fill="#210949"/>
<circle cx="76.5" cy="98.5732" r="1.86585" fill="#210949"/>
<circle cx="76.5" cy="113.5" r="1.86585" fill="#210949"/>
<circle cx="76.5" cy="128.427" r="1.86585" fill="#210949"/>
<circle cx="76.5" cy="143.354" r="1.86585" fill="#210949"/>
<circle cx="76.5" cy="158.28" r="1.86585" fill="#210949"/>
<circle cx="76.5" cy="173.207" r="1.86585" fill="#210949"/>
<circle cx="76.5" cy="188.134" r="1.86585" fill="#210949"/>
<circle cx="76.5" cy="202.866" r="1.86585" fill="#210949"/>
<circle cx="91.4269" cy="38.8659" r="1.86585" fill="#210949"/>
<circle cx="91.4269" cy="53.7927" r="1.86585" fill="#210949"/>
<circle cx="91.4269" cy="68.7195" r="1.86585" fill="#210949"/>
<circle cx="91.4269" cy="83.6464" r="1.86585" fill="#210949"/>
<circle cx="91.4269" cy="98.5732" r="1.86585" fill="#210949"/>
<circle cx="91.4269" cy="113.5" r="1.86585" fill="#210949"/>
<circle cx="91.4269" cy="128.427" r="1.86585" fill="#210949"/>
<circle cx="91.4269" cy="143.354" r="1.86585" fill="#210949"/>
<circle cx="91.4269" cy="158.28" r="1.86585" fill="#210949"/>
<circle cx="91.4269" cy="173.207" r="1.86585" fill="#210949"/>
<circle cx="91.4269" cy="188.134" r="1.86585" fill="#210949"/>
<circle cx="91.4269" cy="202.866" r="1.86585" fill="#210949"/>
<circle cx="106.354" cy="38.8659" r="1.86585" fill="#210949"/>
<circle cx="106.354" cy="53.7927" r="1.86585" fill="#210949"/>
<circle cx="106.354" cy="68.7195" r="1.86585" fill="#210949"/>
<circle cx="106.354" cy="83.6464" r="1.86585" fill="#210949"/>
<circle cx="106.354" cy="98.5732" r="1.86585" fill="#210949"/>
<circle cx="106.354" cy="113.5" r="1.86585" fill="#210949"/>
<circle cx="106.354" cy="128.427" r="1.86585" fill="#210949"/>
<circle cx="106.354" cy="143.354" r="1.86585" fill="#210949"/>
<circle cx="106.354" cy="158.28" r="1.86585" fill="#210949"/>
<circle cx="106.354" cy="173.207" r="1.86585" fill="#210949"/>
<circle cx="106.354" cy="188.134" r="1.86585" fill="#210949"/>
<circle cx="106.354" cy="202.866" r="1.86585" fill="#210949"/>
<circle cx="121.28" cy="38.8659" r="1.86585" fill="#210949"/>
<circle cx="121.28" cy="53.7927" r="1.86585" fill="#210949"/>
<circle cx="121.28" cy="68.7195" r="1.86585" fill="#210949"/>
<circle cx="121.28" cy="83.6464" r="1.86585" fill="#210949"/>
<circle cx="121.28" cy="98.5732" r="1.86585" fill="#210949"/>
<circle cx="121.28" cy="113.5" r="1.86585" fill="#210949"/>
<circle cx="121.28" cy="128.427" r="1.86585" fill="#210949"/>
<circle cx="121.28" cy="143.354" r="1.86585" fill="#210949"/>
<circle cx="121.28" cy="158.28" r="1.86585" fill="#210949"/>
<circle cx="121.28" cy="173.207" r="1.86585" fill="#210949"/>
<circle cx="121.28" cy="188.134" r="1.86585" fill="#210949"/>
<circle cx="121.28" cy="202.866" r="1.86585" fill="#210949"/>
<circle cx="136.207" cy="38.8659" r="1.86585" fill="#210949"/>
<circle cx="136.207" cy="53.7927" r="1.86585" fill="#210949"/>
<circle cx="136.207" cy="68.7195" r="1.86585" fill="#210949"/>
<circle cx="136.207" cy="83.6464" r="1.86585" fill="#210949"/>
<circle cx="136.207" cy="98.5732" r="1.86585" fill="#210949"/>
<circle cx="136.207" cy="113.5" r="1.86585" fill="#210949"/>
<circle cx="136.207" cy="128.427" r="1.86585" fill="#210949"/>
<circle cx="136.207" cy="143.354" r="1.86585" fill="#210949"/>
<circle cx="136.207" cy="158.28" r="1.86585" fill="#210949"/>
<circle cx="136.207" cy="173.207" r="1.86585" fill="#210949"/>
<circle cx="136.207" cy="188.134" r="1.86585" fill="#210949"/>
<circle cx="136.207" cy="202.866" r="1.86585" fill="#210949"/>
<circle cx="151.134" cy="38.8659" r="1.86585" fill="#210949"/>
<circle cx="151.134" cy="53.7927" r="1.86585" fill="#210949"/>
<circle cx="151.134" cy="68.7195" r="1.86585" fill="#210949"/>
<circle cx="151.134" cy="83.6464" r="1.86585" fill="#210949"/>
<circle cx="151.134" cy="98.5732" r="1.86585" fill="#210949"/>
<circle cx="151.134" cy="113.5" r="1.86585" fill="#210949"/>
<circle cx="151.134" cy="128.427" r="1.86585" fill="#210949"/>
<circle cx="151.134" cy="143.354" r="1.86585" fill="#210949"/>
<circle cx="151.134" cy="158.28" r="1.86585" fill="#210949"/>
<circle cx="151.134" cy="173.207" r="1.86585" fill="#210949"/>
<circle cx="151.134" cy="188.134" r="1.86585" fill="#210949"/>
<circle cx="151.134" cy="202.866" r="1.86585" fill="#210949"/>
<circle cx="166.061" cy="38.8659" r="1.86585" fill="#210949"/>
<circle cx="166.061" cy="53.7927" r="1.86585" fill="#210949"/>
<circle cx="166.061" cy="68.7195" r="1.86585" fill="#210949"/>
<circle cx="166.061" cy="83.6464" r="1.86585" fill="#210949"/>
<circle cx="166.061" cy="98.5732" r="1.86585" fill="#210949"/>
<circle cx="166.061" cy="113.5" r="1.86585" fill="#210949"/>
<circle cx="166.061" cy="128.427" r="1.86585" fill="#210949"/>
<circle cx="166.061" cy="143.354" r="1.86585" fill="#210949"/>
<circle cx="166.061" cy="158.28" r="1.86585" fill="#210949"/>
<circle cx="166.061" cy="173.207" r="1.86585" fill="#210949"/>
<circle cx="166.061" cy="188.134" r="1.86585" fill="#210949"/>
<circle cx="166.061" cy="202.866" r="1.86585" fill="#210949"/>
</svg>
