<svg width="685" height="168" viewBox="0 0 685 168" fill="none" xmlns="http://www.w3.org/2000/svg">
<g style="mix-blend-mode:luminosity">
<circle cx="518.866" cy="1.86585" r="1.86585" fill="white"/>
<circle cx="518.866" cy="16.7927" r="1.86585" fill="white"/>
<circle cx="518.866" cy="31.7195" r="1.86585" fill="white"/>
<circle cx="518.866" cy="46.6463" r="1.86585" fill="white"/>
<circle cx="518.866" cy="61.5732" r="1.86585" fill="white"/>
<circle cx="518.866" cy="76.5" r="1.86585" fill="white"/>
<circle cx="518.866" cy="91.4268" r="1.86585" fill="white"/>
<circle cx="518.866" cy="106.354" r="1.86585" fill="white"/>
<circle cx="518.866" cy="121.28" r="1.86585" fill="white"/>
<circle cx="518.866" cy="136.207" r="1.86585" fill="white"/>
<circle cx="518.866" cy="151.134" r="1.86585" fill="white"/>
<circle cx="518.866" cy="165.866" r="1.86585" fill="white"/>
<circle cx="533.793" cy="1.86585" r="1.86585" fill="white"/>
<circle cx="533.793" cy="16.7927" r="1.86585" fill="white"/>
<circle cx="533.793" cy="31.7195" r="1.86585" fill="white"/>
<circle cx="533.793" cy="46.6463" r="1.86585" fill="white"/>
<circle cx="533.793" cy="61.5732" r="1.86585" fill="white"/>
<circle cx="533.793" cy="76.5" r="1.86585" fill="white"/>
<circle cx="533.793" cy="91.4268" r="1.86585" fill="white"/>
<circle cx="533.793" cy="106.354" r="1.86585" fill="white"/>
<circle cx="533.793" cy="121.28" r="1.86585" fill="white"/>
<circle cx="533.793" cy="136.207" r="1.86585" fill="white"/>
<circle cx="533.793" cy="151.134" r="1.86585" fill="white"/>
<circle cx="533.793" cy="165.866" r="1.86585" fill="white"/>
<circle cx="548.719" cy="1.86585" r="1.86585" fill="white"/>
<circle cx="548.719" cy="16.7927" r="1.86585" fill="white"/>
<circle cx="548.719" cy="31.7195" r="1.86585" fill="white"/>
<circle cx="548.719" cy="46.6463" r="1.86585" fill="white"/>
<circle cx="548.719" cy="61.5732" r="1.86585" fill="white"/>
<circle cx="548.719" cy="76.5" r="1.86585" fill="white"/>
<circle cx="548.719" cy="91.4268" r="1.86585" fill="white"/>
<circle cx="548.719" cy="106.354" r="1.86585" fill="white"/>
<circle cx="548.719" cy="121.28" r="1.86585" fill="white"/>
<circle cx="548.719" cy="136.207" r="1.86585" fill="white"/>
<circle cx="548.719" cy="151.134" r="1.86585" fill="white"/>
<circle cx="548.719" cy="165.866" r="1.86585" fill="white"/>
<circle cx="563.646" cy="1.86585" r="1.86585" fill="white"/>
<circle cx="563.646" cy="16.7927" r="1.86585" fill="white"/>
<circle cx="563.646" cy="31.7195" r="1.86585" fill="white"/>
<circle cx="563.646" cy="46.6463" r="1.86585" fill="white"/>
<circle cx="563.646" cy="61.5732" r="1.86585" fill="white"/>
<circle cx="563.646" cy="76.5" r="1.86585" fill="white"/>
<circle cx="563.646" cy="91.4268" r="1.86585" fill="white"/>
<circle cx="563.646" cy="106.354" r="1.86585" fill="white"/>
<circle cx="563.646" cy="121.28" r="1.86585" fill="white"/>
<circle cx="563.646" cy="136.207" r="1.86585" fill="white"/>
<circle cx="563.646" cy="151.134" r="1.86585" fill="white"/>
<circle cx="563.646" cy="165.866" r="1.86585" fill="white"/>
<circle cx="578.573" cy="1.86585" r="1.86585" fill="white"/>
<circle cx="578.573" cy="16.7927" r="1.86585" fill="white"/>
<circle cx="578.573" cy="31.7195" r="1.86585" fill="white"/>
<circle cx="578.573" cy="46.6463" r="1.86585" fill="white"/>
<circle cx="578.573" cy="61.5732" r="1.86585" fill="white"/>
<circle cx="578.573" cy="76.5" r="1.86585" fill="white"/>
<circle cx="578.573" cy="91.4268" r="1.86585" fill="white"/>
<circle cx="578.573" cy="106.354" r="1.86585" fill="white"/>
<circle cx="578.573" cy="121.28" r="1.86585" fill="white"/>
<circle cx="578.573" cy="136.207" r="1.86585" fill="white"/>
<circle cx="578.573" cy="151.134" r="1.86585" fill="white"/>
<circle cx="578.573" cy="165.866" r="1.86585" fill="white"/>
<circle cx="593.5" cy="1.86585" r="1.86585" fill="white"/>
<circle cx="593.5" cy="16.7927" r="1.86585" fill="white"/>
<circle cx="593.5" cy="31.7195" r="1.86585" fill="white"/>
<circle cx="593.5" cy="46.6463" r="1.86585" fill="white"/>
<circle cx="593.5" cy="61.5732" r="1.86585" fill="white"/>
<circle cx="593.5" cy="76.5" r="1.86585" fill="white"/>
<circle cx="593.5" cy="91.4268" r="1.86585" fill="white"/>
<circle cx="593.5" cy="106.354" r="1.86585" fill="white"/>
<circle cx="593.5" cy="121.28" r="1.86585" fill="white"/>
<circle cx="593.5" cy="136.207" r="1.86585" fill="white"/>
<circle cx="593.5" cy="151.134" r="1.86585" fill="white"/>
<circle cx="593.5" cy="165.866" r="1.86585" fill="white"/>
<circle cx="608.427" cy="1.86585" r="1.86585" fill="white"/>
<circle cx="608.427" cy="16.7927" r="1.86585" fill="white"/>
<circle cx="608.427" cy="31.7195" r="1.86585" fill="white"/>
<circle cx="608.427" cy="46.6463" r="1.86585" fill="white"/>
<circle cx="608.427" cy="61.5732" r="1.86585" fill="white"/>
<circle cx="608.427" cy="76.5" r="1.86585" fill="white"/>
<circle cx="608.427" cy="91.4268" r="1.86585" fill="white"/>
<circle cx="608.427" cy="106.354" r="1.86585" fill="white"/>
<circle cx="608.427" cy="121.28" r="1.86585" fill="white"/>
<circle cx="608.427" cy="136.207" r="1.86585" fill="white"/>
<circle cx="608.427" cy="151.134" r="1.86585" fill="white"/>
<circle cx="608.427" cy="165.866" r="1.86585" fill="white"/>
<circle cx="623.354" cy="1.86585" r="1.86585" fill="white"/>
<circle cx="623.354" cy="16.7927" r="1.86585" fill="white"/>
<circle cx="623.354" cy="31.7195" r="1.86585" fill="white"/>
<circle cx="623.354" cy="46.6463" r="1.86585" fill="white"/>
<circle cx="623.354" cy="61.5732" r="1.86585" fill="white"/>
<circle cx="623.354" cy="76.5" r="1.86585" fill="white"/>
<circle cx="623.354" cy="91.4268" r="1.86585" fill="white"/>
<circle cx="623.354" cy="106.354" r="1.86585" fill="white"/>
<circle cx="623.354" cy="121.28" r="1.86585" fill="white"/>
<circle cx="623.354" cy="136.207" r="1.86585" fill="white"/>
<circle cx="623.354" cy="151.134" r="1.86585" fill="white"/>
<circle cx="623.354" cy="165.866" r="1.86585" fill="white"/>
<circle cx="638.28" cy="1.86585" r="1.86585" fill="white"/>
<circle cx="638.28" cy="16.7927" r="1.86585" fill="white"/>
<circle cx="638.28" cy="31.7195" r="1.86585" fill="white"/>
<circle cx="638.28" cy="46.6463" r="1.86585" fill="white"/>
<circle cx="638.28" cy="61.5732" r="1.86585" fill="white"/>
<circle cx="638.28" cy="76.5" r="1.86585" fill="white"/>
<circle cx="638.28" cy="91.4268" r="1.86585" fill="white"/>
<circle cx="638.28" cy="106.354" r="1.86585" fill="white"/>
<circle cx="638.28" cy="121.28" r="1.86585" fill="white"/>
<circle cx="638.28" cy="136.207" r="1.86585" fill="white"/>
<circle cx="638.28" cy="151.134" r="1.86585" fill="white"/>
<circle cx="638.28" cy="165.866" r="1.86585" fill="white"/>
<circle cx="653.207" cy="1.86585" r="1.86585" fill="white"/>
<circle cx="653.207" cy="16.7927" r="1.86585" fill="white"/>
<circle cx="653.207" cy="31.7195" r="1.86585" fill="white"/>
<circle cx="653.207" cy="46.6463" r="1.86585" fill="white"/>
<circle cx="653.207" cy="61.5732" r="1.86585" fill="white"/>
<circle cx="653.207" cy="76.5" r="1.86585" fill="white"/>
<circle cx="653.207" cy="91.4268" r="1.86585" fill="white"/>
<circle cx="653.207" cy="106.354" r="1.86585" fill="white"/>
<circle cx="653.207" cy="121.28" r="1.86585" fill="white"/>
<circle cx="653.207" cy="136.207" r="1.86585" fill="white"/>
<circle cx="653.208" cy="151.134" r="1.86585" fill="white"/>
<circle cx="653.208" cy="165.866" r="1.86585" fill="white"/>
<circle cx="668.134" cy="1.86585" r="1.86585" fill="white"/>
<circle cx="668.134" cy="16.7927" r="1.86585" fill="white"/>
<circle cx="668.134" cy="31.7195" r="1.86585" fill="white"/>
<circle cx="668.134" cy="46.6463" r="1.86585" fill="white"/>
<circle cx="668.134" cy="61.5732" r="1.86585" fill="white"/>
<circle cx="668.134" cy="76.5" r="1.86585" fill="white"/>
<circle cx="668.134" cy="91.4268" r="1.86585" fill="white"/>
<circle cx="668.134" cy="106.354" r="1.86585" fill="white"/>
<circle cx="668.134" cy="121.28" r="1.86585" fill="white"/>
<circle cx="668.134" cy="136.207" r="1.86585" fill="white"/>
<circle cx="668.134" cy="151.134" r="1.86585" fill="white"/>
<circle cx="668.134" cy="165.866" r="1.86585" fill="white"/>
<circle cx="683.061" cy="1.86585" r="1.86585" fill="white"/>
<circle cx="683.061" cy="16.7927" r="1.86585" fill="white"/>
<circle cx="683.061" cy="31.7195" r="1.86585" fill="white"/>
<circle cx="683.061" cy="46.6463" r="1.86585" fill="white"/>
<circle cx="683.061" cy="61.5732" r="1.86585" fill="white"/>
<circle cx="683.061" cy="76.5" r="1.86585" fill="white"/>
<circle cx="683.061" cy="91.4268" r="1.86585" fill="white"/>
<circle cx="683.061" cy="106.354" r="1.86585" fill="white"/>
<circle cx="683.061" cy="121.28" r="1.86585" fill="white"/>
<circle cx="683.061" cy="136.207" r="1.86585" fill="white"/>
<circle cx="683.061" cy="151.134" r="1.86585" fill="white"/>
<circle cx="683.061" cy="165.866" r="1.86585" fill="white"/>
</g>
<g style="mix-blend-mode:luminosity">
<g clip-path="url(#clip0_72_14)">
<path d="M30.7515 34.7514L26.1691 39.3338C25.9955 39.5074 25.7577 39.6027 25.5082 39.5987C25.2587 39.5947 25.0178 39.4918 24.8385 39.3125L16.0517 30.5257C15.8724 30.3464 15.7695 30.1055 15.7655 29.856C15.7615 29.6065 15.8568 29.3687 16.0304 29.1951L24.5406 20.6849L17.1056 13.2499L13.1778 17.1777C13.0042 17.3513 12.7664 17.4466 12.5169 17.4426C12.2674 17.4386 12.0265 17.3357 11.8472 17.1564C11.668 16.9772 11.565 16.7363 11.561 16.4867C11.557 16.2372 11.6523 15.9995 11.826 15.8259L16.4084 11.2435C16.582 11.0699 16.8197 10.9746 17.0692 10.9786C17.3187 10.9825 17.5596 11.0855 17.7389 11.2648L26.5257 20.0516C26.705 20.2309 26.808 20.4718 26.8119 20.7213C26.8159 20.9708 26.7206 21.2085 26.547 21.3821L18.0369 29.8923L25.4719 37.3273L29.3996 33.3996C29.5733 33.2259 29.811 33.1306 30.0605 33.1346C30.31 33.1386 30.5509 33.2416 30.7302 33.4208C30.9094 33.6001 31.0124 33.841 31.0164 34.0905C31.0204 34.34 30.9251 34.5778 30.7515 34.7514Z" fill="white"/>
</g>
<g clip-path="url(#clip1_72_14)">
<path d="M48.3252 52.325L43.7428 56.9074C43.5692 57.081 43.3315 57.1763 43.0819 57.1723C42.8324 57.1683 42.5915 57.0654 42.4123 56.8861L33.6254 48.0993C33.4462 47.92 33.3432 47.6791 33.3392 47.4296C33.3352 47.1801 33.4305 46.9424 33.6041 46.7688L42.1143 38.2586L34.6793 30.8236L30.7515 34.7513C30.5779 34.925 30.3402 35.0203 30.0907 35.0163C29.8411 35.0123 29.6002 34.9093 29.421 34.7301C29.2417 34.5508 29.1388 34.3099 29.1348 34.0604C29.1308 33.8109 29.2261 33.5731 29.3997 33.3995L33.9821 28.8171C34.1557 28.6435 34.3934 28.5482 34.643 28.5522C34.8925 28.5562 35.1334 28.6591 35.3126 28.8384L44.0995 37.6252C44.2787 37.8045 44.3817 38.0454 44.3857 38.2949C44.3897 38.5444 44.2944 38.7822 44.1208 38.9558L35.6106 47.4659L43.0456 54.901L46.9734 50.9732C47.147 50.7996 47.3847 50.7043 47.6342 50.7083C47.8838 50.7123 48.1247 50.8152 48.3039 50.9945C48.4832 51.1737 48.5861 51.4146 48.5901 51.6642C48.5941 51.9137 48.4988 52.1514 48.3252 52.325Z" fill="white"/>
</g>
<g clip-path="url(#clip2_72_14)">
<path d="M65.8989 69.8987L61.3165 74.4811C61.1429 74.6547 60.9052 74.75 60.6557 74.7461C60.4061 74.7421 60.1653 74.6391 59.986 74.4598L51.1992 65.673C51.0199 65.4937 50.9169 65.2529 50.9129 65.0033C50.909 64.7538 51.0043 64.5161 51.1779 64.3425L59.688 55.8323L52.253 48.3973L48.3252 52.3251C48.1516 52.4987 47.9139 52.594 47.6644 52.59C47.4149 52.586 47.174 52.483 46.9947 52.3038C46.8154 52.1245 46.7125 51.8836 46.7085 51.6341C46.7045 51.3846 46.7998 51.1468 46.9734 50.9732L51.5558 46.3908C51.7294 46.2172 51.9672 46.1219 52.2167 46.1259C52.4662 46.1299 52.7071 46.2329 52.8864 46.4121L61.6732 55.199C61.8525 55.3782 61.9554 55.6191 61.9594 55.8686C61.9634 56.1182 61.8681 56.3559 61.6945 56.5295L53.1843 65.0397L60.6193 72.4747L64.5471 68.5469C64.7207 68.3733 64.9584 68.278 65.208 68.282C65.4575 68.286 65.6984 68.3889 65.8776 68.5682C66.0569 68.7475 66.1599 68.9884 66.1639 69.2379C66.1678 69.4874 66.0725 69.7251 65.8989 69.8987Z" fill="white"/>
</g>
<g clip-path="url(#clip3_72_14)">
<path d="M83.4727 87.4725L78.8903 92.0548C78.7166 92.2285 78.4789 92.3238 78.2294 92.3198C77.9799 92.3158 77.739 92.2128 77.5597 92.0336L68.7729 83.2467C68.5936 83.0675 68.4907 82.8266 68.4867 82.577C68.4827 82.3275 68.578 82.0898 68.7516 81.9162L77.2618 73.406L69.8267 65.971L65.899 69.8988C65.7254 70.0724 65.4876 70.1677 65.2381 70.1637C64.9886 70.1597 64.7477 70.0567 64.5684 69.8775C64.3892 69.6982 64.2862 69.4573 64.2822 69.2078C64.2782 68.9583 64.3735 68.7206 64.5472 68.5469L69.1296 63.9645C69.3032 63.7909 69.5409 63.6956 69.7904 63.6996C70.0399 63.7036 70.2808 63.8066 70.4601 63.9858L79.2469 72.7727C79.4262 72.9519 79.5291 73.1928 79.5331 73.4424C79.5371 73.6919 79.4418 73.9296 79.2682 74.1032L70.7581 82.6134L78.1931 90.0484L82.1208 86.1206C82.2945 85.947 82.5322 85.8517 82.7817 85.8557C83.0312 85.8597 83.2721 85.9626 83.4514 86.1419C83.6306 86.3212 83.7336 86.5621 83.7376 86.8116C83.7416 87.0611 83.6463 87.2988 83.4727 87.4725Z" fill="white"/>
</g>
<g clip-path="url(#clip4_72_14)">
<path d="M101.046 105.046L96.464 109.628C96.2904 109.802 96.0527 109.897 95.8031 109.893C95.5536 109.889 95.3127 109.786 95.1335 109.607L86.3466 100.82C86.1674 100.641 86.0644 100.4 86.0604 100.151C86.0564 99.9011 86.1517 99.6634 86.3253 99.4898L94.8355 90.9796L87.4005 83.5446L83.4727 87.4724C83.2991 87.646 83.0614 87.7413 82.8118 87.7373C82.5623 87.7333 82.3214 87.6303 82.1422 87.4511C81.9629 87.2718 81.86 87.0309 81.856 86.7814C81.852 86.5319 81.9473 86.2942 82.1209 86.1205L86.7033 81.5381C86.8769 81.3645 87.1146 81.2692 87.3641 81.2732C87.6137 81.2772 87.8546 81.3802 88.0338 81.5594L96.8207 90.3463C96.9999 90.5255 97.1029 90.7664 97.1069 91.0159C97.1109 91.2655 97.0156 91.5032 96.8419 91.6768L88.3318 100.187L95.7668 107.622L99.6946 103.694C99.8682 103.521 100.106 103.425 100.355 103.429C100.605 103.433 100.846 103.536 101.025 103.716C101.204 103.895 101.307 104.136 101.311 104.385C101.315 104.635 101.22 104.872 101.046 105.046Z" fill="white"/>
</g>
</g>
<defs>
<clipPath id="clip0_72_14">
<rect width="30.5882" height="29.6251" fill="white" transform="translate(20.9482 4) rotate(45)"/>
</clipPath>
<clipPath id="clip1_72_14">
<rect width="30.5882" height="29.6251" fill="white" transform="translate(38.522 21.5736) rotate(45)"/>
</clipPath>
<clipPath id="clip2_72_14">
<rect width="30.5882" height="29.6251" fill="white" transform="translate(56.0957 39.1474) rotate(45)"/>
</clipPath>
<clipPath id="clip3_72_14">
<rect width="30.5882" height="29.6251" fill="white" transform="translate(73.6694 56.7211) rotate(45)"/>
</clipPath>
<clipPath id="clip4_72_14">
<rect width="30.5882" height="29.6251" fill="white" transform="translate(91.2432 74.2947) rotate(45)"/>
</clipPath>
</defs>
</svg>
