<svg width="615" height="168" viewBox="0 0 615 168" fill="none" xmlns="http://www.w3.org/2000/svg">
<g style="mix-blend-mode:luminosity">
<circle cx="1.86585" cy="1.86585" r="1.86585" fill="white"/>
<circle cx="1.86585" cy="16.7927" r="1.86585" fill="white"/>
<circle cx="1.86585" cy="31.7195" r="1.86585" fill="white"/>
<circle cx="1.86585" cy="46.6463" r="1.86585" fill="white"/>
<circle cx="1.86585" cy="61.5732" r="1.86585" fill="white"/>
<circle cx="1.86585" cy="76.5" r="1.86585" fill="white"/>
<circle cx="1.86585" cy="91.4268" r="1.86585" fill="white"/>
<circle cx="1.86585" cy="106.354" r="1.86585" fill="white"/>
<circle cx="1.86585" cy="121.28" r="1.86585" fill="white"/>
<circle cx="1.86585" cy="136.207" r="1.86585" fill="white"/>
<circle cx="1.86585" cy="151.134" r="1.86585" fill="white"/>
<circle cx="1.86585" cy="165.866" r="1.86585" fill="white"/>
<circle cx="16.7926" cy="1.86585" r="1.86585" fill="white"/>
<circle cx="16.7926" cy="16.7927" r="1.86585" fill="white"/>
<circle cx="16.7926" cy="31.7195" r="1.86585" fill="white"/>
<circle cx="16.7926" cy="46.6463" r="1.86585" fill="white"/>
<circle cx="16.7926" cy="61.5732" r="1.86585" fill="white"/>
<circle cx="16.7926" cy="76.5" r="1.86585" fill="white"/>
<circle cx="16.7926" cy="91.4268" r="1.86585" fill="white"/>
<circle cx="16.7926" cy="106.354" r="1.86585" fill="white"/>
<circle cx="16.7926" cy="121.28" r="1.86585" fill="white"/>
<circle cx="16.7926" cy="136.207" r="1.86585" fill="white"/>
<circle cx="16.7926" cy="151.134" r="1.86585" fill="white"/>
<circle cx="16.7926" cy="165.866" r="1.86585" fill="white"/>
<circle cx="31.7194" cy="1.86585" r="1.86585" fill="white"/>
<circle cx="31.7194" cy="16.7927" r="1.86585" fill="white"/>
<circle cx="31.7194" cy="31.7195" r="1.86585" fill="white"/>
<circle cx="31.7194" cy="46.6463" r="1.86585" fill="white"/>
<circle cx="31.7194" cy="61.5732" r="1.86585" fill="white"/>
<circle cx="31.7194" cy="76.5" r="1.86585" fill="white"/>
<circle cx="31.7194" cy="91.4268" r="1.86585" fill="white"/>
<circle cx="31.7194" cy="106.354" r="1.86585" fill="white"/>
<circle cx="31.7194" cy="121.28" r="1.86585" fill="white"/>
<circle cx="31.7194" cy="136.207" r="1.86585" fill="white"/>
<circle cx="31.7194" cy="151.134" r="1.86585" fill="white"/>
<circle cx="31.7194" cy="165.866" r="1.86585" fill="white"/>
<circle cx="46.6461" cy="1.86585" r="1.86585" fill="white"/>
<circle cx="46.6461" cy="16.7927" r="1.86585" fill="white"/>
<circle cx="46.6461" cy="31.7195" r="1.86585" fill="white"/>
<circle cx="46.6461" cy="46.6463" r="1.86585" fill="white"/>
<circle cx="46.6461" cy="61.5732" r="1.86585" fill="white"/>
<circle cx="46.6461" cy="76.5" r="1.86585" fill="white"/>
<circle cx="46.6461" cy="91.4268" r="1.86585" fill="white"/>
<circle cx="46.6461" cy="106.354" r="1.86585" fill="white"/>
<circle cx="46.6461" cy="121.28" r="1.86585" fill="white"/>
<circle cx="46.6461" cy="136.207" r="1.86585" fill="white"/>
<circle cx="46.6461" cy="151.134" r="1.86585" fill="white"/>
<circle cx="46.6461" cy="165.866" r="1.86585" fill="white"/>
<circle cx="61.5734" cy="1.86585" r="1.86585" fill="white"/>
<circle cx="61.5734" cy="16.7927" r="1.86585" fill="white"/>
<circle cx="61.5734" cy="31.7195" r="1.86585" fill="white"/>
<circle cx="61.5734" cy="46.6463" r="1.86585" fill="white"/>
<circle cx="61.5734" cy="61.5732" r="1.86585" fill="white"/>
<circle cx="61.5734" cy="76.5" r="1.86585" fill="white"/>
<circle cx="61.5734" cy="91.4268" r="1.86585" fill="white"/>
<circle cx="61.5734" cy="106.354" r="1.86585" fill="white"/>
<circle cx="61.5734" cy="121.28" r="1.86585" fill="white"/>
<circle cx="61.5734" cy="136.207" r="1.86585" fill="white"/>
<circle cx="61.5729" cy="151.134" r="1.86585" fill="white"/>
<circle cx="61.5729" cy="165.866" r="1.86585" fill="white"/>
<circle cx="76.5001" cy="1.86585" r="1.86585" fill="white"/>
<circle cx="76.5001" cy="16.7927" r="1.86585" fill="white"/>
<circle cx="76.5001" cy="31.7195" r="1.86585" fill="white"/>
<circle cx="76.5001" cy="46.6463" r="1.86585" fill="white"/>
<circle cx="76.5001" cy="61.5732" r="1.86585" fill="white"/>
<circle cx="76.5001" cy="76.5" r="1.86585" fill="white"/>
<circle cx="76.5001" cy="91.4268" r="1.86585" fill="white"/>
<circle cx="76.5001" cy="106.354" r="1.86585" fill="white"/>
<circle cx="76.5001" cy="121.28" r="1.86585" fill="white"/>
<circle cx="76.5001" cy="136.207" r="1.86585" fill="white"/>
<circle cx="76.5001" cy="151.134" r="1.86585" fill="white"/>
<circle cx="76.5001" cy="165.866" r="1.86585" fill="white"/>
<circle cx="91.4269" cy="1.86585" r="1.86585" fill="white"/>
<circle cx="91.4269" cy="16.7927" r="1.86585" fill="white"/>
<circle cx="91.4269" cy="31.7195" r="1.86585" fill="white"/>
<circle cx="91.4269" cy="46.6463" r="1.86585" fill="white"/>
<circle cx="91.4269" cy="61.5732" r="1.86585" fill="white"/>
<circle cx="91.4269" cy="76.5" r="1.86585" fill="white"/>
<circle cx="91.4269" cy="91.4268" r="1.86585" fill="white"/>
<circle cx="91.4269" cy="106.354" r="1.86585" fill="white"/>
<circle cx="91.4269" cy="121.28" r="1.86585" fill="white"/>
<circle cx="91.4269" cy="136.207" r="1.86585" fill="white"/>
<circle cx="91.4269" cy="151.134" r="1.86585" fill="white"/>
<circle cx="91.4269" cy="165.866" r="1.86585" fill="white"/>
<circle cx="106.354" cy="1.86585" r="1.86585" fill="white"/>
<circle cx="106.354" cy="16.7927" r="1.86585" fill="white"/>
<circle cx="106.354" cy="31.7195" r="1.86585" fill="white"/>
<circle cx="106.354" cy="46.6463" r="1.86585" fill="white"/>
<circle cx="106.354" cy="61.5732" r="1.86585" fill="white"/>
<circle cx="106.354" cy="76.5" r="1.86585" fill="white"/>
<circle cx="106.354" cy="91.4268" r="1.86585" fill="white"/>
<circle cx="106.354" cy="106.354" r="1.86585" fill="white"/>
<circle cx="106.354" cy="121.28" r="1.86585" fill="white"/>
<circle cx="106.354" cy="136.207" r="1.86585" fill="white"/>
<circle cx="106.354" cy="151.134" r="1.86585" fill="white"/>
<circle cx="106.354" cy="165.866" r="1.86585" fill="white"/>
<circle cx="121.28" cy="1.86585" r="1.86585" fill="white"/>
<circle cx="121.28" cy="16.7927" r="1.86585" fill="white"/>
<circle cx="121.28" cy="31.7195" r="1.86585" fill="white"/>
<circle cx="121.28" cy="46.6463" r="1.86585" fill="white"/>
<circle cx="121.28" cy="61.5732" r="1.86585" fill="white"/>
<circle cx="121.28" cy="76.5" r="1.86585" fill="white"/>
<circle cx="121.28" cy="91.4268" r="1.86585" fill="white"/>
<circle cx="121.28" cy="106.354" r="1.86585" fill="white"/>
<circle cx="121.28" cy="121.28" r="1.86585" fill="white"/>
<circle cx="121.28" cy="136.207" r="1.86585" fill="white"/>
<circle cx="121.28" cy="151.134" r="1.86585" fill="white"/>
<circle cx="121.28" cy="165.866" r="1.86585" fill="white"/>
<circle cx="136.207" cy="1.86585" r="1.86585" fill="white"/>
<circle cx="136.207" cy="16.7927" r="1.86585" fill="white"/>
<circle cx="136.207" cy="31.7195" r="1.86585" fill="white"/>
<circle cx="136.207" cy="46.6463" r="1.86585" fill="white"/>
<circle cx="136.207" cy="61.5732" r="1.86585" fill="white"/>
<circle cx="136.207" cy="76.5" r="1.86585" fill="white"/>
<circle cx="136.207" cy="91.4268" r="1.86585" fill="white"/>
<circle cx="136.207" cy="106.354" r="1.86585" fill="white"/>
<circle cx="136.207" cy="121.28" r="1.86585" fill="white"/>
<circle cx="136.207" cy="136.207" r="1.86585" fill="white"/>
<circle cx="136.208" cy="151.134" r="1.86585" fill="white"/>
<circle cx="136.208" cy="165.866" r="1.86585" fill="white"/>
<circle cx="151.134" cy="1.86585" r="1.86585" fill="white"/>
<circle cx="151.134" cy="16.7927" r="1.86585" fill="white"/>
<circle cx="151.134" cy="31.7195" r="1.86585" fill="white"/>
<circle cx="151.134" cy="46.6463" r="1.86585" fill="white"/>
<circle cx="151.134" cy="61.5732" r="1.86585" fill="white"/>
<circle cx="151.134" cy="76.5" r="1.86585" fill="white"/>
<circle cx="151.134" cy="91.4268" r="1.86585" fill="white"/>
<circle cx="151.134" cy="106.354" r="1.86585" fill="white"/>
<circle cx="151.134" cy="121.28" r="1.86585" fill="white"/>
<circle cx="151.134" cy="136.207" r="1.86585" fill="white"/>
<circle cx="151.134" cy="151.134" r="1.86585" fill="white"/>
<circle cx="151.134" cy="165.866" r="1.86585" fill="white"/>
<circle cx="166.061" cy="1.86585" r="1.86585" fill="white"/>
<circle cx="166.061" cy="16.7927" r="1.86585" fill="white"/>
<circle cx="166.061" cy="31.7195" r="1.86585" fill="white"/>
<circle cx="166.061" cy="46.6463" r="1.86585" fill="white"/>
<circle cx="166.061" cy="61.5732" r="1.86585" fill="white"/>
<circle cx="166.061" cy="76.5" r="1.86585" fill="white"/>
<circle cx="166.061" cy="91.4268" r="1.86585" fill="white"/>
<circle cx="166.061" cy="106.354" r="1.86585" fill="white"/>
<circle cx="166.061" cy="121.28" r="1.86585" fill="white"/>
<circle cx="166.061" cy="136.207" r="1.86585" fill="white"/>
<circle cx="166.061" cy="151.134" r="1.86585" fill="white"/>
<circle cx="166.061" cy="165.866" r="1.86585" fill="white"/>
</g>
<g style="mix-blend-mode:luminosity">
<g clip-path="url(#clip0_72_13)">
<path d="M532.751 102.121L537.334 106.703C537.507 106.877 537.603 107.114 537.599 107.364C537.595 107.613 537.492 107.854 537.313 108.034L528.526 116.82C528.346 117 528.106 117.103 527.856 117.107C527.606 117.111 527.369 117.015 527.195 116.842L518.685 108.332L511.25 115.767L515.178 119.694C515.351 119.868 515.447 120.106 515.443 120.355C515.439 120.605 515.336 120.846 515.156 121.025C514.977 121.204 514.736 121.307 514.487 121.311C514.237 121.315 514 121.22 513.826 121.046L509.243 116.464C509.07 116.29 508.975 116.052 508.979 115.803C508.983 115.553 509.086 115.312 509.265 115.133L518.052 106.346C518.231 106.167 518.472 106.064 518.721 106.06C518.971 106.056 519.209 106.151 519.382 106.325L527.892 114.835L535.327 107.4L531.4 103.472C531.226 103.299 531.131 103.061 531.135 102.812C531.139 102.562 531.242 102.321 531.421 102.142C531.6 101.963 531.841 101.86 532.091 101.856C532.34 101.852 532.578 101.947 532.751 102.121Z" fill="white"/>
</g>
<g clip-path="url(#clip1_72_13)">
<path d="M550.325 84.547L554.908 89.1294C555.081 89.303 555.176 89.5407 555.172 89.7902C555.168 90.0398 555.066 90.2807 554.886 90.4599L546.099 99.2468C545.92 99.426 545.679 99.529 545.43 99.533C545.18 99.537 544.942 99.4417 544.769 99.268L536.259 90.7579L528.824 98.1929L532.751 102.121C532.925 102.294 533.02 102.532 533.016 102.782C533.012 103.031 532.909 103.272 532.73 103.451C532.551 103.63 532.31 103.733 532.06 103.737C531.811 103.741 531.573 103.646 531.4 103.472L526.817 98.8901C526.644 98.7165 526.548 98.4787 526.552 98.2292C526.556 97.9797 526.659 97.7388 526.839 97.5595L535.625 88.7727C535.805 88.5934 536.046 88.4905 536.295 88.4865C536.545 88.4825 536.782 88.5778 536.956 88.7514L545.466 97.2616L552.901 89.8266L548.973 85.8988C548.8 85.7252 548.704 85.4875 548.708 85.2379C548.712 84.9884 548.815 84.7475 548.995 84.5683C549.174 84.389 549.415 84.286 549.664 84.2821C549.914 84.2781 550.152 84.3734 550.325 84.547Z" fill="white"/>
</g>
<g clip-path="url(#clip2_72_13)">
<path d="M567.899 66.9733L572.481 71.5557C572.655 71.7293 572.75 71.967 572.746 72.2165C572.742 72.466 572.639 72.7069 572.46 72.8862L563.673 81.673C563.494 81.8523 563.253 81.9553 563.003 81.9592C562.754 81.9632 562.516 81.8679 562.343 81.6943L553.832 73.1842L546.397 80.6192L550.325 84.5469C550.499 84.7206 550.594 84.9583 550.59 85.2078C550.586 85.4573 550.483 85.6982 550.304 85.8775C550.125 86.0567 549.884 86.1597 549.634 86.1637C549.385 86.1677 549.147 86.0724 548.973 85.8988L544.391 81.3164C544.217 81.1428 544.122 80.905 544.126 80.6555C544.13 80.406 544.233 80.1651 544.412 79.9858L553.199 71.199C553.378 71.0197 553.619 70.9168 553.869 70.9128C554.118 70.9088 554.356 71.0041 554.53 71.1777L563.04 79.6879L570.475 72.2529L566.547 68.3251C566.373 68.1515 566.278 67.9137 566.282 67.6642C566.286 67.4147 566.389 67.1738 566.568 66.9945C566.748 66.8153 566.988 66.7123 567.238 66.7083C567.488 66.7043 567.725 66.7996 567.899 66.9733Z" fill="white"/>
</g>
<g clip-path="url(#clip3_72_13)">
<path d="M585.473 49.3995L590.055 53.9819C590.229 54.1556 590.324 54.3933 590.32 54.6428C590.316 54.8923 590.213 55.1332 590.034 55.3125L581.247 64.0993C581.068 64.2786 580.827 64.3815 580.577 64.3855C580.328 64.3895 580.09 64.2942 579.916 64.1206L571.406 55.6104L563.971 63.0455L567.899 66.9732C568.073 67.1468 568.168 67.3846 568.164 67.6341C568.16 67.8836 568.057 68.1245 567.878 68.3038C567.698 68.483 567.457 68.586 567.208 68.59C566.958 68.594 566.721 68.4987 566.547 68.3251L561.965 63.7427C561.791 63.569 561.696 63.3313 561.7 63.0818C561.704 62.8323 561.807 62.5914 561.986 62.4121L570.773 53.6253C570.952 53.446 571.193 53.3431 571.442 53.3391C571.692 53.3351 571.93 53.4304 572.103 53.604L580.614 62.1142L588.049 54.6791L584.121 50.7514C583.947 50.5778 583.852 50.34 583.856 50.0905C583.86 49.841 583.963 49.6001 584.142 49.4208C584.321 49.2416 584.562 49.1386 584.812 49.1346C585.061 49.1306 585.299 49.2259 585.473 49.3995Z" fill="white"/>
</g>
<g clip-path="url(#clip4_72_13)">
<path d="M603.046 31.8259L607.628 36.4083C607.802 36.5819 607.897 36.8196 607.893 37.0691C607.889 37.3186 607.786 37.5595 607.607 37.7388L598.82 46.5256C598.641 46.7049 598.4 46.8079 598.15 46.8118C597.901 46.8158 597.663 46.7205 597.49 46.5469L588.979 38.0368L581.544 45.4718L585.472 49.3995C585.646 49.5732 585.741 49.8109 585.737 50.0604C585.733 50.3099 585.63 50.5508 585.451 50.7301C585.272 50.9093 585.031 51.0123 584.781 51.0163C584.532 51.0203 584.294 50.925 584.12 50.7514L579.538 46.169C579.364 45.9954 579.269 45.7576 579.273 45.5081C579.277 45.2586 579.38 45.0177 579.559 44.8384L588.346 36.0516C588.525 35.8723 588.766 35.7694 589.016 35.7654C589.265 35.7614 589.503 35.8567 589.677 36.0303L598.187 44.5405L605.622 37.1055L601.694 33.1777C601.52 33.0041 601.425 32.7663 601.429 32.5168C601.433 32.2673 601.536 32.0264 601.715 31.8471C601.895 31.6679 602.135 31.5649 602.385 31.5609C602.634 31.5569 602.872 31.6522 603.046 31.8259Z" fill="white"/>
</g>
</g>
<defs>
<clipPath id="clip0_72_13">
<rect width="30.5882" height="29.6251" fill="white" transform="translate(502 111.924) rotate(-45)"/>
</clipPath>
<clipPath id="clip1_72_13">
<rect width="30.5882" height="29.6251" fill="white" transform="translate(519.574 94.3503) rotate(-45)"/>
</clipPath>
<clipPath id="clip2_72_13">
<rect width="30.5882" height="29.6251" fill="white" transform="translate(537.147 76.7765) rotate(-45)"/>
</clipPath>
<clipPath id="clip3_72_13">
<rect width="30.5882" height="29.6251" fill="white" transform="translate(554.721 59.2028) rotate(-45)"/>
</clipPath>
<clipPath id="clip4_72_13">
<rect width="30.5882" height="29.6251" fill="white" transform="translate(572.294 41.6291) rotate(-45)"/>
</clipPath>
</defs>
</svg>
